<svg xmlns="http://www.w3.org/2000/svg" width="207" height="180" fill="none" viewBox="0 0 207 180"><path fill="#5B10FF" fillRule="evenodd" d="M16.2292 61.397L24.4877 66.167L13.7616 84.7628H35.2285V94.3071H13.767L24.4973 112.902L16.2395 117.678L0 89.5326L16.2292 61.397Z" clipRule="evenodd"/><path fill="#5B10FF" fillRule="evenodd" d="M141.635 146.179L152.37 164.783L163.09 146.184L171.354 150.954L155.121 179.104H122.656V169.56H144.108L133.377 150.949L141.635 146.179Z" clipRule="evenodd"/><path fill="#5B10FF" fillRule="evenodd" d="M122.66 0H155.12L171.354 28.1503L163.09 32.9198L152.369 14.3207L141.634 32.9204L133.377 28.1443L144.107 9.5443H122.66V0Z" clipRule="evenodd"/><path fill="#000" fillRule="evenodd" d="M51.6621 0H84.127V9.5443H62.68L106.075 84.7629H192.898L182.172 66.1672L190.431 61.3971L206.66 89.5326L190.426 117.678L182.162 112.903L192.898 94.3072H106.075L62.6795 169.56H84.1319V179.105L51.667 179.099L35.4384 150.955L43.6969 146.184L54.422 164.783L97.8165 89.5328L54.4176 14.3159L43.6921 32.9201L35.4336 28.15L51.6621 0Z" clipRule="evenodd"/></svg>