<svg xmlns="http://www.w3.org/2000/svg" width="214" height="112" fill="none" viewBox="0 0 214 112"><path fill="#fff" d="M0.00878906 0.249023H13.5272C14.3234 0.249023 15.1859 0.257317 16.1065 0.273904C17.0271 0.290491 17.9394 0.340252 18.8434 0.431481C19.7474 0.522709 20.5933 0.647112 21.3729 0.821276C22.1525 0.99544 22.8242 1.26083 23.3799 1.60087C24.5991 2.3307 25.6275 3.3425 26.4817 4.628C27.3359 5.91349 27.7589 7.49756 27.7589 9.38018C27.7589 11.3623 27.2779 13.0791 26.3241 14.5222C25.3704 15.9652 24.0019 17.0351 22.2271 17.7318V17.8396C24.5244 18.3289 26.2826 19.3739 27.4935 20.9662C28.7126 22.5669 29.3181 24.5158 29.3181 26.8132C29.3181 28.1733 29.0776 29.492 28.5882 30.7775C28.0989 32.0629 27.3774 33.2075 26.4236 34.1944C25.4699 35.1896 24.2839 35.9858 22.874 36.5912C21.4641 37.1966 19.8386 37.5035 17.9974 37.5035H0.00878906V0.249023ZM14.8791 16.2721C17.6989 16.2721 19.7225 15.7745 20.9582 14.7876C22.1939 13.7923 22.8077 12.3078 22.8077 10.3256C22.8077 9.00697 22.6003 7.96199 22.1856 7.19069C21.771 6.42769 21.1904 5.83885 20.4606 5.41588C19.7308 5.00121 18.8848 4.72752 17.9311 4.60312C16.9773 4.47872 15.9572 4.42066 14.8791 4.42066H4.96831V16.2638H14.8791V16.2721ZM17.3837 33.3319C19.5732 33.3319 21.2899 32.743 22.5257 31.557C23.7614 30.3711 24.3751 28.7372 24.3751 26.6556C24.3751 25.4364 24.1512 24.4329 23.6951 23.6284C23.2389 22.8323 22.6418 22.1937 21.8954 21.7209C21.149 21.2482 20.2864 20.9248 19.3161 20.734C18.3457 20.5433 17.3339 20.4437 16.289 20.4437H4.96831V33.3319H17.3837Z"/><path fill="#fff" d="M33.9873 5.68127V0.249023H38.4243V5.68127H33.9873ZM38.4243 10.533V37.5035H33.9873V10.533H38.4243Z"/><path fill="#fff" d="M130.482 37.5035V33.8543H130.375C129.645 35.3472 128.5 36.4253 126.933 37.0888C125.365 37.7523 123.649 38.0757 121.766 38.0757C119.676 38.0757 117.86 37.6942 116.317 36.9312C114.766 36.1682 113.481 35.1398 112.452 33.8543C111.424 32.5688 110.653 31.0677 110.13 29.3675C109.608 27.6674 109.351 25.8511 109.351 23.9436C109.351 22.0361 109.599 20.2198 110.105 18.5196C110.611 16.8195 111.374 15.3266 112.403 14.0577C113.431 12.7888 114.716 11.777 116.267 11.0306C117.818 10.2842 119.618 9.91097 121.666 9.91097C122.363 9.91097 123.11 9.97731 123.914 10.1183C124.71 10.2593 125.515 10.4915 126.311 10.8233C127.107 11.155 127.87 11.5863 128.583 12.1253C129.296 12.6644 129.894 13.3362 130.383 14.1324H130.491V0.249023H134.928V37.5035H130.491H130.482ZM114.542 27.9328C114.874 29.1353 115.38 30.2052 116.052 31.1424C116.732 32.0795 117.603 32.8259 118.664 33.3816C119.726 33.9373 120.97 34.2193 122.396 34.2193C123.823 34.2193 125.158 33.9207 126.203 33.3318C127.248 32.743 128.102 31.9717 128.757 31.0097C129.421 30.0559 129.894 28.9695 130.192 27.7503C130.491 26.5312 130.632 25.2954 130.632 24.0431C130.632 22.7244 130.474 21.4472 130.159 20.2115C129.844 18.9758 129.346 17.8893 128.674 16.9522C127.994 16.015 127.115 15.252 126.037 14.6797C124.959 14.1075 123.657 13.8172 122.123 13.8172C120.588 13.8172 119.361 14.1158 118.316 14.7046C117.271 15.2935 116.442 16.0813 115.811 17.0517C115.189 18.022 114.733 19.1416 114.451 20.394C114.169 21.6463 114.036 22.9318 114.036 24.2587C114.036 25.5111 114.202 26.7385 114.534 27.9411L114.542 27.9328Z"/><path fill="#fff" d="M165.605 37.4036C164.842 37.8515 163.781 38.0837 162.421 38.0837C161.276 38.0837 160.355 37.7603 159.684 37.1217C159.004 36.4748 158.664 35.4215 158.664 33.9618C157.444 35.4215 156.026 36.4748 154.409 37.1217C152.792 37.7686 151.042 38.0837 149.167 38.0837C147.948 38.0837 146.796 37.9427 145.701 37.669C144.606 37.3871 143.661 36.9558 142.856 36.367C142.052 35.7781 141.421 34.9985 140.949 34.0448C140.476 33.091 140.244 31.9299 140.244 30.5781C140.244 29.0438 140.501 27.7915 141.023 26.8211C141.546 25.8508 142.234 25.0546 143.088 24.4492C143.943 23.8437 144.913 23.3793 146.008 23.0642C147.102 22.749 148.222 22.4919 149.375 22.2846C150.594 22.0441 151.747 21.8616 152.841 21.7372C153.936 21.6128 154.907 21.4386 155.736 21.2147C156.574 20.9908 157.229 20.659 157.718 20.2278C158.207 19.7965 158.448 19.1579 158.448 18.3203C158.448 17.3499 158.265 16.562 157.901 15.9732C157.536 15.3844 157.063 14.9282 156.491 14.6131C155.918 14.2979 155.271 14.0906 154.558 13.9911C153.845 13.8832 153.14 13.8335 152.443 13.8335C150.569 13.8335 149.002 14.1901 147.749 14.9033C146.497 15.6166 145.817 16.9684 145.717 18.9506H141.28C141.347 17.2836 141.695 15.8737 142.325 14.7209C142.947 13.5764 143.785 12.6392 144.83 11.926C145.875 11.2127 147.061 10.6985 148.404 10.3834C149.74 10.0682 151.175 9.91064 152.709 9.91064C153.928 9.91064 155.139 10.0019 156.333 10.1677C157.536 10.3419 158.622 10.6985 159.592 11.2376C160.563 11.7767 161.351 12.5314 161.939 13.5017C162.528 14.4721 162.827 15.741 162.827 17.3002V31.1503C162.827 32.1953 162.885 32.9583 163.009 33.4393C163.134 33.9287 163.54 34.1692 164.237 34.1692C164.618 34.1692 165.074 34.1028 165.597 33.9618V37.4036H165.605ZM158.406 23.5784C157.851 23.993 157.121 24.2999 156.217 24.4906C155.313 24.6814 154.367 24.839 153.372 24.9551C152.385 25.0795 151.382 25.2122 150.37 25.3698C149.358 25.5273 148.454 25.7761 147.658 26.1245C146.854 26.4728 146.207 26.9621 145.701 27.6007C145.195 28.2393 144.946 29.1184 144.946 30.2215C144.946 30.9513 145.095 31.565 145.386 32.0626C145.684 32.5685 146.066 32.9749 146.53 33.2818C147.003 33.5969 147.55 33.8208 148.172 33.9535C148.794 34.0862 149.458 34.1609 150.154 34.1609C151.614 34.1609 152.866 33.9618 153.911 33.5637C154.956 33.1657 155.811 32.6598 156.466 32.0543C157.129 31.4489 157.61 30.7937 157.925 30.0805C158.241 29.3755 158.398 28.7037 158.398 28.0817V23.5618L158.406 23.5784Z"/><path fill="#fff" d="M48.8406 10.5328V16.2222H48.9484C50.0266 14.0327 51.3452 12.4155 52.9127 11.3705C54.4802 10.3255 56.4623 9.84447 58.8591 9.91081V14.6049C57.0843 14.6049 55.5749 14.8455 54.3226 15.3348C53.0703 15.8241 52.0585 16.5373 51.2955 17.4745C50.5325 18.4117 49.9768 19.5562 49.6285 20.8914C49.2801 22.235 49.106 23.7693 49.106 25.5109V37.5116H44.6689V10.5328H48.8406Z"/><path fill="#fff" d="M71.9136 1.85791H66.9375V32.5273H71.9136V1.85791Z"/><path fill="#fff" d="M76.8809 32.5273H71.9048V37.5035H76.8809V32.5273Z"/><path fill="#fff" d="M76.8812 10.0767H62.2183V15.0528H76.8812V10.0767Z"/><path fill="#fff" d="M86.0869 0V14.24H86.1948C86.5431 13.4023 87.0324 12.6974 87.6544 12.1251C88.2764 11.5529 88.9814 11.0801 89.7693 10.7152C90.5489 10.3503 91.3699 10.0849 92.2241 9.90246C93.0784 9.72829 93.8994 9.64536 94.7039 9.64536C96.4787 9.64536 97.955 9.88587 99.1409 10.3752C100.327 10.8645 101.281 11.5446 102.01 12.4071C102.74 13.2779 103.255 14.3146 103.553 15.5089C103.852 16.7114 104.001 18.0384 104.001 19.4981V37.2379H99.5639V18.9921C99.5639 17.3252 99.0746 15.9982 98.1042 15.0278C97.1339 14.0575 95.7904 13.5682 94.0902 13.5682C92.73 13.5682 91.5607 13.7755 90.5654 14.1902C89.5785 14.6049 88.7492 15.202 88.0857 15.965C87.4222 16.728 86.9329 17.6237 86.6011 18.6521C86.2694 19.6805 86.1035 20.8001 86.1035 22.0193V37.2545H81.6665V0H86.1035H86.0869Z"/><path fill="#fff" d="M173.609 10.7236H168.633V28.1981H173.609V10.7236Z"/><path fill="#fff" d="M193.513 10.7236H188.537V28.1981H193.513V10.7236Z"/><path fill="#fff" d="M178.585 28.1982H173.609V33.1744H178.585V28.1982Z"/><path fill="#fff" d="M188.537 28.1982H183.561V33.1744H188.537V28.1982Z"/><path fill="#fff" d="M183.561 33.1826H178.585V38.1587H183.561V33.1826Z"/><path fill="#fff" d="M183.561 38.1587H178.585V43.1348H183.561V38.1587Z"/><path fill="#fff" d="M178.585 43.1348H173.609V48.1109H178.585V43.1348Z"/><path fill="#fff" d="M53.9903 83.9387C51.975 85.473 49.4289 86.2361 46.3685 86.2361C44.2122 86.2361 42.3379 85.8877 40.7621 85.1911C39.1781 84.4944 37.8511 83.5241 36.7729 82.2717C35.6948 81.0194 34.882 79.5266 34.3429 77.785C33.8039 76.0433 33.497 74.1524 33.4307 72.0956C33.4307 70.0471 33.7458 68.1645 34.3678 66.4643C34.9898 64.7641 35.869 63.2796 37.0052 62.0273C38.1331 60.775 39.4766 59.8046 41.0192 59.108C42.5701 58.4113 44.262 58.063 46.1032 58.063C48.5 58.063 50.4904 58.5606 52.0745 59.5475C53.6585 60.5427 54.9275 61.8034 55.8812 63.3294C56.835 64.8637 57.4984 66.5307 57.8634 68.3387C58.2283 70.1466 58.3776 71.8717 58.3029 73.5055H38.1082C38.075 74.6915 38.216 75.8111 38.5229 76.8727C38.838 77.9342 39.3439 78.8714 40.0323 79.6925C40.729 80.5135 41.6164 81.1604 42.6945 81.6497C43.7727 82.1391 45.0416 82.3796 46.5012 82.3796C48.3756 82.3796 49.9182 81.9483 51.1207 81.0775C52.3233 80.2067 53.1112 78.888 53.4927 77.1132H57.8799C57.2911 80.1403 55.9807 82.421 53.9654 83.947L53.9903 83.9387ZM52.9204 66.6136C52.5223 65.6764 51.9833 64.8637 51.3032 64.1836C50.6231 63.5035 49.8269 62.9645 48.9064 62.5664C47.9858 62.1683 46.9657 61.9692 45.8543 61.9692C44.743 61.9692 43.6732 62.1683 42.7526 62.5664C41.832 62.9645 41.0358 63.5118 40.3806 64.2085C39.7171 64.9051 39.1947 65.7096 38.8132 66.6385C38.4317 67.5591 38.2077 68.546 38.1331 69.5827H53.6254C53.559 68.5377 53.3185 67.5508 52.9204 66.6053V66.6136Z"/><path fill="#fff" d="M66.7455 79.6344C67.1602 80.3145 67.7076 80.8535 68.3876 81.2516C69.0677 81.6497 69.8307 81.94 70.6849 82.1142C71.5392 82.2883 72.4183 82.3713 73.3223 82.3713C74.0189 82.3713 74.7488 82.3215 75.5118 82.2137C76.2748 82.1059 76.9797 81.9151 77.6266 81.6414C78.2735 81.3677 78.8043 80.9531 79.219 80.414C79.6336 79.8749 79.841 79.1865 79.841 78.3489C79.841 77.2044 79.4014 76.3336 78.5389 75.7364C77.6681 75.1476 76.5816 74.6666 75.2795 74.3017C73.9775 73.9367 72.5593 73.605 71.025 73.3147C69.4907 73.0162 68.0808 72.6015 66.7704 72.0624C65.4683 71.5233 64.3819 70.7686 63.511 69.79C62.6402 68.8197 62.209 67.4595 62.209 65.7179C62.209 64.3577 62.5158 63.1966 63.1213 62.218C63.7267 61.2477 64.5146 60.4515 65.4683 59.8461C66.4221 59.2406 67.5002 58.7845 68.7028 58.4859C69.9053 58.1874 71.0913 58.0381 72.2773 58.0381C73.8116 58.0381 75.2132 58.1708 76.507 58.4279C77.7925 58.685 78.937 59.1411 79.9239 59.788C80.9191 60.4349 81.707 61.2974 82.2959 62.4005C82.8847 63.4952 83.233 64.8636 83.3408 66.4975H78.9038C78.8375 65.6266 78.6052 64.9051 78.2237 64.3329C77.8422 63.7606 77.3529 63.2962 76.7641 62.9478C76.1752 62.5995 75.5201 62.3507 74.8068 62.1931C74.0936 62.0356 73.372 61.9609 72.6422 61.9609C71.9787 61.9609 71.3152 62.0107 70.6352 62.1185C69.9551 62.2263 69.3414 62.4088 68.7857 62.6659C68.2301 62.923 67.7739 63.2713 67.4256 63.7108C67.0773 64.1421 66.9031 64.7144 66.9031 65.4027C66.9031 66.1657 67.1685 66.8043 67.7159 67.3102C68.2549 67.8161 68.9433 68.2308 69.7809 68.5626C70.6186 68.8943 71.5558 69.168 72.6007 69.4002C73.6457 69.6241 74.6907 69.8646 75.7274 70.1051C76.8387 70.3457 77.9252 70.6442 78.9867 70.9925C80.0483 71.3409 80.9855 71.8053 81.8065 72.3776C82.6193 72.9498 83.2828 73.6714 83.7887 74.5422C84.2946 75.413 84.5434 76.4911 84.5434 77.7766C84.5434 79.4105 84.2034 80.7706 83.5233 81.8488C82.8432 82.9269 81.9558 83.7977 80.8611 84.4612C79.7663 85.1247 78.5306 85.5808 77.1539 85.8462C75.7772 86.1033 74.417 86.236 73.0569 86.236C71.564 86.236 70.1376 86.0785 68.7774 85.7633C67.4173 85.4481 66.223 84.934 65.178 84.2207C64.1331 83.5075 63.3037 82.5703 62.6734 81.4009C62.0514 80.2315 61.7031 78.8216 61.6284 77.1463H66.0655C66.0986 78.1167 66.3226 78.946 66.7455 79.6261V79.6344Z"/><path fill="#fff" d="M141.553 85.556C140.79 86.0038 139.728 86.2361 138.368 86.2361C137.224 86.2361 136.303 85.9126 135.631 85.274C134.951 84.6271 134.611 83.5738 134.611 82.1142C133.392 83.5738 131.974 84.6271 130.357 85.274C128.739 85.9209 126.99 86.2361 125.115 86.2361C123.896 86.2361 122.743 86.0951 121.649 85.8214C120.554 85.5394 119.608 85.1081 118.804 84.5193C117.999 83.9305 117.369 83.1509 116.896 82.1971C116.424 81.2434 116.191 80.0823 116.191 78.7304C116.191 77.1961 116.448 75.9438 116.971 74.9735C117.493 74.0031 118.182 73.2069 119.036 72.6015C119.89 71.9961 120.861 71.5317 121.955 71.2165C123.05 70.9013 124.17 70.6442 125.323 70.4369C126.542 70.1964 127.694 70.0139 128.789 69.8895C129.884 69.7651 130.854 69.591 131.684 69.367C132.521 69.1431 133.177 68.8114 133.666 68.3801C134.155 67.9489 134.396 67.3103 134.396 66.4726C134.396 65.5023 134.213 64.7144 133.848 64.1255C133.483 63.5367 133.011 63.0806 132.438 62.7654C131.866 62.4503 131.219 62.2429 130.506 62.1434C129.793 62.0356 129.088 61.9858 128.391 61.9858C126.517 61.9858 124.949 62.3424 123.697 63.0557C122.445 63.7689 121.765 65.1208 121.665 67.1029H117.228C117.294 65.4359 117.643 64.026 118.273 62.8732C118.895 61.7287 119.733 60.7916 120.778 60.0783C121.823 59.3651 123.009 58.8509 124.352 58.5357C125.687 58.2206 127.122 58.063 128.657 58.063C129.876 58.063 131.087 58.1542 132.281 58.3201C133.483 58.4942 134.57 58.8509 135.54 59.3899C136.511 59.929 137.298 60.6837 137.887 61.6541C138.476 62.6244 138.775 63.8933 138.775 65.4525V79.3027C138.775 80.3477 138.833 81.1107 138.957 81.5917C139.082 82.081 139.488 82.3215 140.185 82.3215C140.566 82.3215 141.022 82.2552 141.545 82.1142V85.556H141.553ZM134.354 71.7307C133.799 72.1454 133.069 72.4522 132.165 72.643C131.261 72.8337 130.315 72.9913 129.32 73.1074C128.333 73.2318 127.33 73.3645 126.318 73.5221C125.306 73.6797 124.402 73.9285 123.606 74.2768C122.801 74.6251 122.154 75.1144 121.649 75.753C121.143 76.3916 120.894 77.2708 120.894 78.3738C120.894 79.1036 121.043 79.7174 121.333 80.215C121.624 80.7126 122.013 81.1273 122.478 81.4341C122.951 81.7493 123.498 81.9732 124.12 82.1059C124.742 82.2386 125.405 82.3132 126.102 82.3132C127.562 82.3132 128.814 82.1142 129.859 81.7161C130.904 81.318 131.758 80.8121 132.414 80.2067C133.077 79.6012 133.558 78.9461 133.873 78.2328C134.188 77.5279 134.346 76.8561 134.346 76.2341V71.7141L134.354 71.7307Z"/><path fill="#fff" d="M179.421 63.3874C178.31 62.4503 176.809 61.9775 174.934 61.9775C173.334 61.9775 171.998 62.2761 170.92 62.8649C169.842 63.4538 168.98 64.2417 168.341 65.212C167.694 66.1823 167.238 67.3103 166.956 68.5792C166.674 69.8481 166.541 71.1584 166.541 72.5186C166.541 73.7709 166.691 74.99 166.981 76.1677C167.279 77.3537 167.736 78.3987 168.366 79.3276C168.996 80.2564 169.809 80.9863 170.821 81.5419C171.833 82.0976 173.027 82.3796 174.42 82.3796C176.61 82.3796 178.326 81.8073 179.562 80.6545C180.798 79.51 181.553 77.8928 181.835 75.8028H186.371C185.882 79.1451 184.638 81.7161 182.639 83.5241C180.64 85.3321 177.92 86.2361 174.47 86.2361C172.413 86.2361 170.597 85.9043 169.021 85.2491C167.437 84.5856 166.118 83.6485 165.057 82.4293C163.995 81.2102 163.199 79.7588 162.66 78.0752C162.121 76.3917 161.847 74.5339 161.847 72.5186C161.847 70.5033 162.104 68.6123 162.627 66.8541C163.149 65.0959 163.937 63.5699 164.999 62.2595C166.06 60.9491 167.387 59.929 168.988 59.1826C170.589 58.4362 172.446 58.063 174.569 58.063C176.095 58.063 177.53 58.2454 178.874 58.6104C180.209 58.9753 181.395 59.5392 182.423 60.3105C183.452 61.0735 184.289 62.0439 184.953 63.205C185.616 64.3743 186.031 65.7511 186.205 67.3517H181.611C181.262 65.6516 180.532 64.3246 179.421 63.3874Z"/><path fill="#fff" d="M150.195 58.519H145.219V85.7798H150.195V58.519Z"/><path fill="#fff" d="M155.171 63.4951H150.195V68.4712H155.171V63.4951Z"/><path fill="#fff" d="M161.441 58.519H155.171V63.4952H161.441V58.519Z"/><path fill="#fff" d="M4.96685 53.3608H0.015625V85.6641H4.96685V53.3608Z"/><path fill="#fff" d="M28.8599 53.3608H23.9087V65.5772H28.8599V53.3608Z"/><path fill="#fff" d="M23.9092 48.4097H4.9668V53.3609H23.9092V48.4097Z"/><path fill="#fff" d="M23.9092 65.5771H4.9668V70.5284H23.9092V65.5771Z"/><path fill="#fff" d="M28.8599 70.5283H23.9087V85.664H28.8599V70.5283Z"/><path fill="#fff" d="M196.142 48.1108H191.166V85.8629H196.142V48.1108Z"/><path fill="#fff" d="M213.84 64.2749H208.864V85.8629H213.84V64.2749Z"/><path fill="#fff" d="M201.118 64.2749H196.142V69.251H201.118V64.2749Z"/><path fill="#fff" d="M208.947 59.2988H201.118V64.2749H208.947V59.2988Z"/><path fill="#fff" d="M108.346 83.9387C106.33 85.473 103.784 86.2361 100.724 86.2361C98.5677 86.2361 96.6934 85.8877 95.1176 85.1911C93.5335 84.4944 92.2066 83.5241 91.1284 82.2717C90.0503 81.0194 89.2375 79.5266 88.6984 77.785C88.1593 76.0433 87.8525 74.1524 87.7861 72.0956C87.7861 70.0471 88.1013 68.1645 88.7233 66.4643C89.3453 64.7641 90.2244 63.2796 91.3606 62.0273C92.4886 60.775 93.8321 59.8046 95.3747 59.108C96.9256 58.4113 98.6175 58.063 100.459 58.063C102.855 58.063 104.846 58.5606 106.43 59.5475C108.014 60.5427 109.283 61.8034 110.237 63.3294C111.19 64.8637 111.854 66.5307 112.219 68.3387C112.584 70.1466 112.733 71.8717 112.658 73.5055H92.4637C92.4305 74.6915 92.5715 75.8111 92.8783 76.8727C93.1935 77.9342 93.6994 78.8714 94.3878 79.6925C95.0844 80.5135 95.9718 81.1604 97.05 81.6497C98.1281 82.1391 99.3971 82.3796 100.857 82.3796C102.731 82.3796 104.274 81.9483 105.476 81.0775C106.679 80.2067 107.467 78.888 107.848 77.1132H112.235C111.647 80.1403 110.336 82.421 108.321 83.947L108.346 83.9387ZM107.276 66.6136C106.878 65.6764 106.339 64.8637 105.659 64.1836C104.979 63.5035 104.182 62.9645 103.262 62.5664C102.341 62.1683 101.321 61.9692 100.21 61.9692C99.0985 61.9692 98.0286 62.1683 97.108 62.5664C96.1875 62.9645 95.3913 63.5118 94.7361 64.2085C94.0726 64.9051 93.5501 65.7096 93.1686 66.6385C92.7871 67.5591 92.5632 68.546 92.4886 69.5827H107.981C107.914 68.5377 107.674 67.5508 107.276 66.6053V66.6136Z"/><path fill="#fff" d="M5.91328 98.4111C6.51041 98.4111 7.05778 98.4609 7.5471 98.5687C8.03642 98.6765 8.45938 98.8507 8.816 99.0912C9.16433 99.3317 9.43802 99.6552 9.63706 100.053C9.82781 100.451 9.92734 100.949 9.92734 101.529C9.92734 102.16 9.78635 102.691 9.49607 103.114C9.2058 103.537 8.78283 103.885 8.21887 104.15C8.99017 104.374 9.57071 104.764 9.95222 105.32C10.3337 105.875 10.5245 106.547 10.5245 107.335C10.5245 107.965 10.4001 108.521 10.1513 108.985C9.90246 109.45 9.57071 109.831 9.15604 110.122C8.74136 110.412 8.26034 110.636 7.72955 110.777C7.19877 110.918 6.6431 110.984 6.07915 110.984H0V98.4111H5.91328ZM5.56495 103.503C6.05427 103.503 6.46065 103.387 6.7758 103.155C7.09095 102.923 7.24853 102.541 7.24853 102.011C7.24853 101.72 7.19877 101.48 7.09095 101.289C6.98314 101.098 6.84215 100.957 6.66798 100.849C6.49382 100.742 6.28648 100.667 6.06256 100.625C5.83034 100.584 5.59812 100.567 5.34932 100.567H2.76174V103.512H5.56495V103.503ZM5.72252 108.836C5.99621 108.836 6.25331 108.811 6.49382 108.753C6.74263 108.703 6.95826 108.612 7.14901 108.488C7.33976 108.363 7.48904 108.197 7.59686 107.99C7.70467 107.783 7.76273 107.509 7.76273 107.177C7.76273 106.53 7.58027 106.074 7.21536 105.792C6.85044 105.519 6.36942 105.378 5.77229 105.378H2.76174V108.828H5.72252V108.836Z"/><path fill="#fff" d="M11.9844 98.4111H15.0861L18.0303 103.379L20.9497 98.4111H24.0349L19.3656 106.157V110.984H16.6039V106.091L11.9927 98.4111H11.9844Z"/><path fill="#fff" d="M40.8621 101.77C40.6962 101.504 40.4889 101.272 40.2484 101.073C39.9996 100.874 39.7259 100.716 39.4107 100.609C39.0956 100.501 38.7721 100.443 38.4321 100.443C37.8101 100.443 37.2793 100.567 36.848 100.808C36.4168 101.048 36.0601 101.372 35.7947 101.778C35.5294 102.184 35.3303 102.641 35.2059 103.163C35.0815 103.677 35.0235 104.216 35.0235 104.764C35.0235 105.311 35.0815 105.809 35.2059 106.306C35.3303 106.804 35.5294 107.252 35.7947 107.65C36.0684 108.048 36.4168 108.371 36.848 108.612C37.2793 108.852 37.8101 108.977 38.4321 108.977C39.278 108.977 39.9332 108.72 40.4142 108.206C40.887 107.691 41.1772 107.011 41.2851 106.165H43.9639C43.8975 106.953 43.7151 107.658 43.4165 108.297C43.1262 108.927 42.7364 109.474 42.2554 109.914C41.7744 110.362 41.2104 110.702 40.5635 110.934C39.9166 111.166 39.2117 111.282 38.4321 111.282C37.47 111.282 36.5992 111.117 35.8362 110.777C35.0649 110.445 34.418 109.98 33.8872 109.391C33.3565 108.803 32.9584 108.114 32.6764 107.326C32.3944 106.539 32.2534 105.676 32.2534 104.764C32.2534 103.851 32.3944 102.956 32.6764 102.151C32.9584 101.347 33.3647 100.642 33.8872 100.045C34.418 99.4476 35.0649 98.9748 35.8362 98.6348C36.6075 98.2948 37.47 98.1206 38.4321 98.1206C39.1204 98.1206 39.7756 98.2201 40.3976 98.4192C41.0114 98.6182 41.567 98.9085 42.0564 99.29C42.5457 99.6715 42.9438 100.144 43.2589 100.708C43.5741 101.272 43.7731 101.919 43.856 102.649H41.1772C41.1275 102.334 41.028 102.043 40.8621 101.778V101.77Z"/><path fill="#fff" d="M53.1447 98.4111L57.8471 110.984H54.9776L54.0238 108.181H49.3214L48.3345 110.984H45.5562L50.3083 98.4111H53.1447ZM53.3023 106.124L51.7182 101.513H51.6851L50.0512 106.124H53.3106H53.3023Z"/><path fill="#fff" d="M63.1963 98.4111V103.619L68.1061 98.4111H71.5562L66.6464 103.379L72.0372 110.984H68.5705L64.7887 105.328L63.2046 106.929V110.976H60.4429V98.4028H63.2046L63.1963 98.4111Z"/><path fill="#fff" d="M84.0303 98.4111V100.733H77.3955V103.429H83.4913V105.577H77.3955V108.662H84.1713V110.984H74.6255V98.4111H84.0303Z"/><path fill="#fff" d="M99.1657 98.4111C99.9784 98.4111 100.733 98.5438 101.43 98.8009C102.126 99.058 102.732 99.4478 103.246 99.962C103.76 100.476 104.158 101.123 104.44 101.903C104.731 102.674 104.872 103.586 104.872 104.631C104.872 105.544 104.755 106.389 104.523 107.169C104.291 107.94 103.934 108.612 103.462 109.176C102.989 109.74 102.392 110.18 101.687 110.503C100.974 110.827 100.136 110.984 99.174 110.984H93.75V98.4111H99.174H99.1657ZM98.9749 108.662C99.373 108.662 99.7628 108.596 100.136 108.471C100.509 108.347 100.849 108.131 101.14 107.833C101.43 107.534 101.67 107.144 101.844 106.663C102.019 106.182 102.11 105.593 102.11 104.905C102.11 104.275 102.052 103.702 101.927 103.188C101.803 102.674 101.604 102.243 101.322 101.878C101.04 101.513 100.667 101.239 100.202 101.04C99.7379 100.849 99.1657 100.75 98.4856 100.75H96.5117V108.67H98.9749V108.662Z"/><path fill="#fff" d="M117.594 98.4111V100.733H110.959V103.429H117.055V105.577H110.959V108.662H117.735V110.984H108.189V98.4111H117.594Z"/><path fill="#fff" d="M129.976 98.4111V100.733H123.905V103.636H129.172V105.784H123.905V110.976H121.144V98.4028H129.984L129.976 98.4111Z"/><path fill="#fff" d="M135.657 98.4111V110.984H132.896V98.4111H135.657Z"/></svg>