<svg xmlns="http://www.w3.org/2000/svg" width="304" height="32" fill="none" viewBox="0 0 304 32"><g clip-path="url(#clip0_3881_16066)"><path fill="#fff" d="M75.5105 28.613C74.9091 28.9582 74.0756 29.1292 73.01 29.1292C72.1078 29.1292 71.3887 28.8854 70.8592 28.3945C70.3264 27.9037 70.0584 27.1025 70.0584 25.991C69.1007 27.1025 67.9893 27.9037 66.7178 28.3945C65.4463 28.8854 64.0735 29.1292 62.596 29.1292C61.6383 29.1292 60.7296 29.0216 59.8699 28.8125C59.0103 28.6035 58.265 28.271 57.6342 27.8214C57.0066 27.3717 56.5065 26.7827 56.1371 26.0543C55.7678 25.326 55.5847 24.4457 55.5847 23.4133C55.5847 22.248 55.7906 21.2948 56.1992 20.5538C56.6078 19.8128 57.1504 19.2111 57.8205 18.7456C58.4906 18.2833 59.2554 17.9318 60.1151 17.6942C60.9748 17.4567 61.8573 17.2572 62.7594 17.0989C63.7172 16.9152 64.6259 16.7759 65.4855 16.6809C66.3452 16.5891 67.1035 16.4561 67.7605 16.2851C68.4175 16.1141 68.934 15.8607 69.3197 15.5314C69.7021 15.2021 69.895 14.7175 69.895 14.081C69.895 13.34 69.7511 12.7447 69.4635 12.295C69.1759 11.8453 68.8065 11.5002 68.3554 11.2627C67.9043 11.0252 67.3977 10.8668 66.8388 10.7845C66.2798 10.7053 65.7241 10.6642 65.1783 10.6642C63.7008 10.6642 62.4718 10.9365 61.4879 11.478C60.5041 12.0195 59.9713 13.0487 59.8896 14.556H56.4052C56.4607 13.2862 56.732 12.2127 57.2256 11.3387C57.7192 10.4647 58.3729 9.75532 59.1933 9.21381C60.0138 8.67231 60.9486 8.27964 62.0011 8.04213C63.0536 7.80463 64.1813 7.6843 65.3842 7.6843C66.3419 7.6843 67.2898 7.7508 68.2345 7.8838C69.1759 8.0168 70.0322 8.28597 70.7971 8.69764C71.562 9.10615 72.1765 9.68249 72.6406 10.4203C73.1048 11.1613 73.3369 12.124 73.3369 13.3115V23.8535C73.3369 24.6452 73.3859 25.2278 73.4807 25.5983C73.5755 25.9688 73.8958 26.1525 74.445 26.1525C74.7457 26.1525 75.102 26.0987 75.5105 25.9942V28.6162V28.613ZM69.8525 18.0869C69.4145 18.4036 68.8424 18.6348 68.1299 18.7773C67.4206 18.9229 66.6753 19.0401 65.8941 19.1319C65.1162 19.2238 64.3284 19.3314 63.5374 19.4486C62.7431 19.5689 62.0338 19.7589 61.4062 20.0218C60.7786 20.2846 60.2655 20.6615 59.8699 21.1491C59.4744 21.6368 59.275 22.3018 59.275 23.1441C59.275 23.6983 59.3927 24.1638 59.6248 24.547C59.8569 24.9302 60.1576 25.2405 60.5269 25.4748C60.8963 25.7123 61.3278 25.8833 61.8181 25.9878C62.3084 26.0923 62.8281 26.1462 63.3772 26.1462C64.5245 26.1462 65.5084 25.9942 66.3288 25.6933C67.1493 25.3893 67.8194 25.0093 68.3391 24.547C68.8588 24.0847 69.2412 23.5843 69.4864 23.046C69.7315 22.5076 69.8557 21.9978 69.8557 21.526V18.0869H69.8525Z"/><path fill="#fff" d="M52.2402 8.16507H48.3538V24.9264H52.2402V8.16507Z"/><path fill="#fff" d="M38.5735 8.16507H34.687V24.9264H38.5735V8.16507Z"/><path fill="#fff" d="M48.3572 24.9268H38.5741V28.692H48.3572V24.9268Z"/><path fill="#fff" d="M82.04 11.9305H78.1536V28.6918H82.04V11.9305Z"/><path fill="#fff" d="M95.7101 11.9305H91.8236V28.6918H95.7101V11.9305Z"/><path fill="#fff" d="M91.8237 8.16507H82.0406V11.9303H91.8237V8.16507Z"/><path fill="#fff" d="M82.0389 8.16522H78.1525V11.9304H82.0389V8.16522Z"/><path fill="#fff" d="M109.201 8.15607V11.1359H104.978V23.8851C104.978 24.2809 105.011 24.6008 105.079 24.8383C105.148 25.0758 105.279 25.2626 105.468 25.3956C105.658 25.5286 105.926 25.6141 106.269 25.6553C106.609 25.6933 107.054 25.7154 107.603 25.7154H109.201V28.6953H106.537C105.635 28.6953 104.864 28.6351 104.22 28.518C103.576 28.3976 103.056 28.1791 102.661 27.8625C102.265 27.5458 101.971 27.0961 101.778 26.5135C101.585 25.9308 101.49 25.1644 101.49 24.2113V11.1359H97.8817V8.15607H101.49V2H104.975V8.15607H109.198H109.201Z"/><path fill="#fff" d="M129.703 8.16507H125.817V24.9264H129.703V8.16507Z"/><path fill="#fff" d="M116.033 8.16507H112.147V24.9264H116.033V8.16507Z"/><path fill="#fff" d="M125.817 24.9268H116.034V28.692H125.817V24.9268Z"/><path fill="#fff" d="M176.257 7.77301C177.548 7.77301 178.541 8.09285 179.238 8.72936C179.934 9.36586 180.283 10.338 180.283 11.6427C180.283 12.3267 180.205 12.9316 180.048 13.4572C179.891 13.9829 179.649 14.4294 179.322 14.7873C178.992 15.1483 178.574 15.4238 178.064 15.6106C177.554 15.8006 176.953 15.8956 176.257 15.8956H173.38V7.77301H176.257ZM176.351 14.9868C176.475 14.9868 176.632 14.9773 176.822 14.9583C177.012 14.9393 177.211 14.8949 177.42 14.8221C177.629 14.7493 177.842 14.6448 178.048 14.5086C178.257 14.3724 178.443 14.1856 178.607 13.9513C178.77 13.7169 178.907 13.4224 179.012 13.0709C179.117 12.7194 179.169 12.2919 179.169 11.7916C179.169 11.2912 179.12 10.8732 179.022 10.49C178.924 10.1069 178.764 9.7807 178.541 9.51153C178.319 9.24236 178.031 9.03653 177.678 8.89719C177.325 8.75786 176.891 8.68819 176.374 8.68819H174.495V14.9899H176.351V14.9868Z"/><path fill="#fff" d="M187.698 7.7729V8.68175H183.023V11.2626H187.381V12.1715H183.023V14.9803H187.734V15.8892H181.909V7.76657H187.698V7.7729Z"/><path fill="#fff" d="M191.563 15.8956L188.615 7.77301H189.811L192.207 14.8158H192.23L194.649 7.77301H195.812L192.831 15.8956H191.563Z"/><path fill="#fff" d="M202.739 7.7729V8.68175H198.065V11.2626H202.422V12.1715H198.065V14.9803H202.775V15.8892H196.951V7.76657H202.739V7.7729Z"/><path fill="#fff" d="M205.362 7.77301V14.9868H209.801V15.8956H204.248V7.77301H205.366H205.362Z"/><path fill="#fff" d="M210.507 10.2369C210.673 9.72391 210.928 9.27107 211.265 8.8784C211.602 8.48257 212.02 8.16906 212.52 7.93473C213.02 7.70039 213.605 7.58322 214.269 7.58322C214.932 7.58322 215.517 7.70039 216.017 7.93473C216.518 8.16906 216.936 8.48573 217.273 8.8784C217.609 9.27424 217.861 9.72708 218.031 10.2369C218.198 10.7499 218.283 11.2819 218.283 11.8361C218.283 12.3903 218.198 12.9223 218.031 13.4353C217.864 13.9483 217.609 14.4011 217.273 14.7938C216.936 15.1896 216.518 15.5 216.017 15.7312C215.517 15.9623 214.932 16.0795 214.269 16.0795C213.605 16.0795 213.02 15.9655 212.52 15.7312C212.02 15.5 211.598 15.1865 211.265 14.7938C210.928 14.398 210.676 13.9451 210.507 13.4353C210.337 12.9223 210.255 12.3903 210.255 11.8361C210.255 11.2819 210.34 10.7499 210.507 10.2369ZM211.533 13.049C211.641 13.448 211.814 13.8058 212.049 14.1225C212.285 14.4423 212.585 14.6956 212.955 14.892C213.324 15.0851 213.762 15.1833 214.269 15.1833C214.775 15.1833 215.217 15.0851 215.583 14.892C215.952 14.6988 216.253 14.4423 216.488 14.1225C216.724 13.8026 216.897 13.4448 217.005 13.049C217.116 12.6499 217.168 12.2478 217.168 11.8361C217.168 11.4244 217.113 11.0223 217.005 10.6233C216.897 10.2243 216.724 9.86642 216.488 9.54974C216.253 9.22991 215.952 8.97657 215.583 8.78024C215.213 8.58707 214.775 8.4889 214.269 8.4889C213.762 8.4889 213.321 8.58707 212.955 8.78024C212.585 8.9734 212.285 9.22991 212.049 9.54974C211.814 9.86958 211.641 10.2274 211.533 10.6233C211.422 11.0223 211.366 11.4244 211.366 11.8361C211.366 12.2478 211.422 12.6499 211.533 13.049Z"/><path fill="#fff" d="M223.545 7.77301C224.392 7.77301 225.029 7.98201 225.464 8.40318C225.899 8.82436 226.114 9.41336 226.114 10.1734C226.114 10.9334 225.899 11.5224 225.464 11.9467C225.029 12.3711 224.388 12.5801 223.545 12.5737H220.986V15.8956H219.868V7.77301H223.545ZM223.169 11.6649C223.803 11.6712 224.268 11.5477 224.558 11.2881C224.853 11.0315 225 10.6579 225 10.1734C225 9.68887 224.853 9.31836 224.558 9.06503C224.264 8.81169 223.8 8.68502 223.169 8.68502H220.986V11.6649H223.169Z"/><path fill="#fff" d="M233.268 7.7729V8.68175H228.593V11.2626H232.951V12.1715H228.593V14.9803H233.304V15.8892H227.479V7.76657H233.268V7.7729Z"/><path fill="#fff" d="M237.656 7.77301C238.947 7.77301 239.94 8.09285 240.637 8.72936C241.333 9.36586 241.683 10.338 241.683 11.6427C241.683 12.3267 241.604 12.9316 241.447 13.4572C241.29 13.9829 241.048 14.4294 240.722 14.7873C240.391 15.1483 239.973 15.4238 239.463 15.6106C238.953 15.8006 238.352 15.8956 237.656 15.8956H234.779V7.77301H237.656ZM237.75 14.9868C237.875 14.9868 238.031 14.9773 238.221 14.9583C238.411 14.9393 238.61 14.8949 238.819 14.8221C239.028 14.7493 239.241 14.6448 239.447 14.5086C239.653 14.3724 239.842 14.1856 240.006 13.9513C240.169 13.7169 240.306 13.4224 240.411 13.0709C240.516 12.7194 240.568 12.2919 240.568 11.7916C240.568 11.2912 240.519 10.8732 240.421 10.49C240.323 10.1069 240.163 9.7807 239.94 9.51153C239.718 9.24236 239.431 9.03653 239.077 8.89719C238.724 8.75786 238.29 8.68819 237.773 8.68819H235.894V14.9899H237.75V14.9868Z"/><path fill="#fff" d="M249.82 7.77301C250 7.77301 250.193 7.77301 250.402 7.77934C250.611 7.78251 250.814 7.79518 251.016 7.81418C251.219 7.83318 251.412 7.86168 251.585 7.89968C251.762 7.93768 251.912 7.99468 252.036 8.07068C252.311 8.22902 252.543 8.45069 252.736 8.72936C252.925 9.01119 253.023 9.35636 253.023 9.76487C253.023 10.1955 252.915 10.5724 252.7 10.8859C252.484 11.1994 252.177 11.4337 251.778 11.5857V11.6079C252.294 11.7156 252.69 11.9404 252.964 12.2919C253.239 12.6402 253.376 13.0646 253.376 13.5649C253.376 13.8626 253.321 14.1508 253.21 14.4294C253.102 14.7113 252.938 14.9583 252.723 15.1736C252.507 15.3889 252.242 15.5631 251.925 15.6961C251.608 15.8291 251.242 15.8956 250.827 15.8956H246.774V7.77301H249.817H249.82ZM250.124 11.2659C250.758 11.2659 251.216 11.1582 251.494 10.9429C251.771 10.7275 251.912 10.4014 251.912 9.9707C251.912 9.68253 251.866 9.45453 251.771 9.2867C251.677 9.11886 251.549 8.98903 251.382 8.90036C251.219 8.80852 251.029 8.75152 250.814 8.72302C250.598 8.69769 250.369 8.68185 250.127 8.68185H247.898V11.2627H250.127L250.124 11.2659ZM250.689 14.9868C251.183 14.9868 251.569 14.8569 251.847 14.6004C252.124 14.3439 252.262 13.9861 252.262 13.5301C252.262 13.2641 252.209 13.0456 252.108 12.8714C252.007 12.6972 251.873 12.5579 251.703 12.4566C251.533 12.3552 251.34 12.2824 251.121 12.2412C250.902 12.2001 250.676 12.1779 250.438 12.1779H247.891V14.9868H250.686H250.689Z"/><path fill="#fff" d="M258.137 15.8956H257.023V12.5737L253.78 7.77301H255.107L257.621 11.6427L260.075 7.77301H261.344L258.137 12.5737V15.8956Z"/><path fill="#fff" d="M176.42 20.2884C176.6 20.2884 176.793 20.2884 177.002 20.2948C177.211 20.2979 177.414 20.3106 177.616 20.3296C177.819 20.3486 178.012 20.3771 178.185 20.4151C178.362 20.4531 178.512 20.5101 178.636 20.5861C178.911 20.7444 179.143 20.9661 179.336 21.2448C179.525 21.5266 179.623 21.8718 179.623 22.2803C179.623 22.711 179.515 23.0878 179.3 23.4013C179.084 23.7148 178.777 23.9491 178.378 24.1011V24.1233C178.894 24.231 179.29 24.4558 179.564 24.8073C179.839 25.1556 179.976 25.58 179.976 26.0803C179.976 26.378 179.921 26.6662 179.81 26.9448C179.702 27.2267 179.538 27.4737 179.323 27.689C179.107 27.9043 178.842 28.0785 178.525 28.2115C178.208 28.3445 177.842 28.411 177.427 28.411H173.374V20.2884H176.417H176.42ZM176.724 23.7813C177.358 23.7813 177.816 23.6736 178.094 23.4583C178.371 23.243 178.512 22.9168 178.512 22.4861C178.512 22.1979 178.466 21.9699 178.371 21.8021C178.277 21.6343 178.149 21.5044 177.982 21.4158C177.819 21.3239 177.629 21.2669 177.414 21.2384C177.198 21.2131 176.969 21.1973 176.727 21.1973H174.498V23.7781H176.727L176.724 23.7813ZM177.289 27.5022C177.783 27.5022 178.169 27.3723 178.447 27.1158C178.724 26.8593 178.862 26.5015 178.862 26.0455C178.862 25.7795 178.809 25.561 178.708 25.3868C178.607 25.2126 178.473 25.0733 178.303 24.972C178.133 24.8706 177.94 24.7978 177.721 24.7566C177.502 24.7155 177.276 24.6933 177.038 24.6933H174.491V27.5022H177.286H177.289Z"/><path fill="#fff" d="M182.759 20.2884V28.411H181.644V20.2884H182.759Z"/><path fill="#fff" d="M188.748 20.2884C189.546 20.2884 190.17 20.4784 190.621 20.8584C191.072 21.2384 191.298 21.7578 191.298 22.4164C191.298 22.9105 191.183 23.3411 190.951 23.7148C190.719 24.0853 190.35 24.3418 189.843 24.478V24.5001C190.085 24.5445 190.284 24.6205 190.435 24.7281C190.585 24.8358 190.709 24.9625 190.798 25.1081C190.886 25.2538 190.954 25.4216 190.997 25.6022C191.039 25.7827 191.072 25.9727 191.095 26.1722C191.111 26.3685 191.124 26.5712 191.131 26.7738C191.137 26.9765 191.157 27.1792 191.19 27.3755C191.219 27.5718 191.265 27.7618 191.324 27.9392C191.383 28.1165 191.471 28.2749 191.589 28.411H190.343C190.265 28.3287 190.212 28.2147 190.186 28.069C190.157 27.9265 190.141 27.765 190.134 27.5845C190.127 27.4072 190.118 27.214 190.111 27.0113C190.105 26.8055 190.078 26.606 190.039 26.4097C190.007 26.2133 189.967 26.0233 189.922 25.846C189.876 25.6687 189.801 25.5135 189.699 25.3805C189.598 25.2475 189.464 25.143 189.3 25.0606C189.137 24.9815 188.918 24.9403 188.643 24.9403H185.921V28.411H184.803V20.2884H188.748ZM188.983 23.9745C189.219 23.9365 189.425 23.8636 189.598 23.7528C189.771 23.642 189.915 23.4963 190.02 23.3095C190.124 23.1226 190.176 22.882 190.176 22.5874C190.176 22.1789 190.059 21.8433 189.823 21.5868C189.588 21.3303 189.209 21.2004 188.686 21.2004H185.914V24.0346H188.238C188.496 24.0346 188.745 24.0156 188.98 23.9776L188.983 23.9745Z"/><path fill="#fff" d="M192.185 21.1997V20.2908H198.892V21.1997H196.098V28.4134H194.98V21.1997H192.185Z"/><path fill="#fff" d="M201.155 20.2884V23.7813H205.571V20.2884H206.686V28.411H205.571V24.6901H201.155V28.411H200.037V20.2884H201.155Z"/><path fill="#fff" d="M211.59 20.2884C212.881 20.2884 213.874 20.6083 214.571 21.2448C215.267 21.8813 215.617 22.8535 215.617 24.1581C215.617 24.8421 215.538 25.447 215.381 25.9727C215.224 26.4983 214.982 26.9448 214.656 27.3027C214.325 27.6637 213.907 27.9392 213.397 28.126C212.887 28.316 212.286 28.411 211.59 28.411H208.713V20.2884H211.59ZM211.684 27.5022C211.808 27.5022 211.965 27.4927 212.155 27.4737C212.345 27.4547 212.544 27.4103 212.753 27.3375C212.962 27.2647 213.175 27.1602 213.381 27.024C213.587 26.8878 213.776 26.701 213.94 26.4667C214.103 26.2323 214.24 25.9378 214.345 25.5863C214.45 25.2348 214.502 24.8073 214.502 24.307C214.502 23.8066 214.453 23.3886 214.355 23.0055C214.257 22.6223 214.097 22.2961 213.874 22.0269C213.652 21.7578 213.364 21.5519 213.011 21.4126C212.658 21.2733 212.224 21.2036 211.707 21.2036H209.828V27.5053H211.684V27.5022Z"/><path fill="#fff" d="M220.439 20.2884L223.715 28.411H222.482L221.567 25.9663H218.021L217.082 28.411H215.942L219.207 20.2884H220.439ZM221.214 25.0543L219.815 21.2669H219.792L218.37 25.0543H221.211H221.214Z"/><path fill="#fff" d="M227.24 28.411H226.125V25.0891L222.883 20.2884H224.21L226.724 24.1581L229.178 20.2884H230.447L227.24 25.0891V28.411Z"/><path fill="#fff" d="M239.067 20.2884C239.865 20.2884 240.489 20.4784 240.94 20.8584C241.391 21.2384 241.617 21.7578 241.617 22.4164C241.617 22.9105 241.503 23.3411 241.271 23.7148C241.038 24.0853 240.669 24.3418 240.162 24.478V24.5001C240.404 24.5445 240.604 24.6205 240.754 24.7281C240.904 24.8358 241.029 24.9625 241.117 25.1081C241.205 25.2538 241.274 25.4216 241.316 25.6022C241.359 25.7827 241.392 25.9727 241.414 26.1722C241.431 26.3685 241.444 26.5712 241.45 26.7738C241.457 26.9765 241.476 27.1792 241.509 27.3755C241.539 27.5718 241.584 27.7618 241.643 27.9392C241.702 28.1165 241.79 28.2749 241.908 28.411H240.663C240.584 28.3287 240.532 28.2147 240.506 28.069C240.476 27.9265 240.46 27.765 240.453 27.5845C240.447 27.4072 240.437 27.214 240.431 27.0113C240.424 26.8055 240.398 26.606 240.359 26.4097C240.326 26.2133 240.287 26.0233 240.241 25.846C240.195 25.6687 240.12 25.5135 240.019 25.3805C239.917 25.2475 239.783 25.143 239.62 25.0606C239.456 24.9815 239.237 24.9403 238.963 24.9403H236.24V28.411H235.122V20.2884H239.067ZM239.303 23.9745C239.538 23.9365 239.744 23.8636 239.917 23.7528C240.091 23.642 240.234 23.4963 240.339 23.3095C240.444 23.1226 240.496 22.882 240.496 22.5874C240.496 22.1789 240.378 21.8433 240.143 21.5868C239.908 21.3303 239.528 21.2004 239.005 21.2004H236.234V24.0346H238.558C238.816 24.0346 239.064 24.0156 239.3 23.9776L239.303 23.9745Z"/><path fill="#fff" d="M249.204 20.2883V21.1972H244.53V23.778H248.887V24.6869H244.53V27.4957H249.24V28.4046H243.416V20.282H249.204V20.2883Z"/><path fill="#fff" d="M254.822 21.3968C254.449 21.1339 253.975 21.0041 253.394 21.0041C253.158 21.0041 252.929 21.0263 252.701 21.0738C252.472 21.1213 252.272 21.1941 252.096 21.3018C251.919 21.4094 251.779 21.5488 251.674 21.7293C251.57 21.9066 251.517 22.1283 251.517 22.3943C251.517 22.6445 251.593 22.8471 251.746 23.0023C251.9 23.1575 252.102 23.2841 252.357 23.3823C252.612 23.4805 252.9 23.5628 253.22 23.6261C253.541 23.6895 253.868 23.7623 254.201 23.8351C254.534 23.9111 254.861 23.9998 255.182 24.1011C255.502 24.2025 255.79 24.3418 256.044 24.516C256.299 24.6901 256.502 24.9118 256.656 25.1746C256.809 25.4407 256.885 25.7732 256.885 26.1753C256.885 26.606 256.786 26.9765 256.584 27.2837C256.384 27.5908 256.126 27.841 255.816 28.0342C255.502 28.2274 255.152 28.3667 254.766 28.4554C254.381 28.544 253.992 28.5852 253.609 28.5852C253.139 28.5852 252.697 28.5282 252.276 28.4142C251.857 28.3002 251.488 28.1292 251.171 27.898C250.854 27.6668 250.602 27.3723 250.419 27.0113C250.236 26.6503 250.145 26.226 250.145 25.732H251.2C251.2 26.074 251.269 26.3685 251.406 26.6123C251.544 26.8593 251.723 27.062 251.946 27.2203C252.168 27.3787 252.429 27.4958 252.727 27.5718C253.024 27.6478 253.328 27.6858 253.642 27.6858C253.894 27.6858 254.145 27.6637 254.4 27.6162C254.655 27.5718 254.884 27.4927 255.087 27.3818C255.289 27.271 255.456 27.1222 255.58 26.9322C255.705 26.7422 255.77 26.4983 255.77 26.2038C255.77 25.9093 255.695 25.6972 255.541 25.5198C255.387 25.3456 255.185 25.2031 254.93 25.0923C254.675 24.9815 254.387 24.8928 254.067 24.8263C253.747 24.7566 253.42 24.687 253.086 24.6173C252.753 24.5445 252.426 24.4621 252.106 24.3671C251.785 24.2721 251.498 24.1486 251.243 23.9935C250.988 23.8383 250.785 23.6356 250.632 23.3918C250.478 23.1448 250.403 22.8376 250.403 22.464C250.403 22.0554 250.491 21.7008 250.661 21.3999C250.834 21.0991 251.063 20.8521 251.347 20.6589C251.632 20.4658 251.959 20.3201 252.321 20.2283C252.684 20.1333 253.06 20.0858 253.443 20.0858C253.874 20.0858 254.273 20.1364 254.639 20.2346C255.005 20.3328 255.332 20.4879 255.61 20.7001C255.888 20.9123 256.107 21.1814 256.267 21.5013C256.427 21.8243 256.515 22.2074 256.532 22.6571H255.476C255.414 22.0744 255.195 21.6501 254.825 21.3873L254.822 21.3968Z"/><path fill="#fff" d="M264.246 20.2883V21.1972H259.572V23.778H263.929V24.6869H259.572V27.4957H264.282V28.4046H258.458V20.282H264.246V20.2883Z"/><path fill="#fff" d="M269.642 20.2884L272.917 28.411H271.685L270.769 25.9663H267.223L266.285 28.411H265.144L268.409 20.2884H269.642ZM270.416 25.0543L269.017 21.2669H268.995L267.573 25.0543H270.413H270.416Z"/><path fill="#fff" d="M277.958 20.2884C278.755 20.2884 279.38 20.4784 279.831 20.8584C280.282 21.2384 280.507 21.7578 280.507 22.4164C280.507 22.9105 280.393 23.3411 280.161 23.7148C279.929 24.0853 279.559 24.3418 279.053 24.478V24.5001C279.295 24.5445 279.494 24.6205 279.644 24.7281C279.795 24.8358 279.919 24.9625 280.007 25.1081C280.095 25.257 280.164 25.4216 280.206 25.6022C280.249 25.7827 280.282 25.9727 280.305 26.1722C280.321 26.3685 280.334 26.5712 280.34 26.7738C280.347 26.9797 280.367 27.1792 280.399 27.3755C280.429 27.5718 280.474 27.7618 280.533 27.9392C280.592 28.1165 280.68 28.2749 280.798 28.411H279.553C279.474 28.3287 279.422 28.2147 279.396 28.069C279.366 27.9265 279.35 27.765 279.344 27.5845C279.337 27.4072 279.327 27.214 279.321 27.0113C279.314 26.8055 279.288 26.606 279.249 26.4097C279.216 26.2133 279.177 26.0233 279.131 25.846C279.085 25.6687 279.01 25.5135 278.909 25.3805C278.807 25.2475 278.673 25.143 278.51 25.0606C278.347 24.9815 278.128 24.9403 277.853 24.9403H275.13V28.411H274.012V20.2884H277.958ZM278.193 23.9745C278.428 23.9365 278.634 23.8636 278.807 23.7528C278.981 23.642 279.125 23.4963 279.229 23.3095C279.334 23.1226 279.386 22.882 279.386 22.5874C279.386 22.1789 279.268 21.8433 279.033 21.5868C278.798 21.3303 278.418 21.2004 277.896 21.2004H275.124V24.0346H277.448C277.706 24.0346 277.954 24.0156 278.19 23.9776L278.193 23.9745Z"/><path fill="#fff" d="M287.281 21.4372C286.853 21.149 286.346 21.0065 285.761 21.0065C285.261 21.0065 284.83 21.0984 284.473 21.2789C284.117 21.4594 283.823 21.7064 283.594 22.0136C283.362 22.3207 283.192 22.6722 283.084 23.0649C282.976 23.4607 282.921 23.8692 282.921 24.2936C282.921 24.7559 282.976 25.1929 283.084 25.6078C283.195 26.0226 283.365 26.3804 283.594 26.6876C283.826 26.9948 284.12 27.2386 284.48 27.4223C284.839 27.6028 285.271 27.6946 285.771 27.6946C286.14 27.6946 286.464 27.6345 286.752 27.5173C287.039 27.4001 287.284 27.2355 287.494 27.0265C287.699 26.8174 287.863 26.5704 287.981 26.2823C288.098 25.9941 288.17 25.6838 288.193 25.3481H289.308C289.2 26.3709 288.834 27.169 288.216 27.7358C287.598 28.3058 286.751 28.5876 285.679 28.5876C285.029 28.5876 284.46 28.48 283.976 28.2646C283.489 28.0493 283.087 27.7516 282.767 27.3716C282.447 26.9916 282.205 26.5451 282.045 26.0289C281.884 25.5128 281.803 24.9586 281.803 24.3664C281.803 23.7742 281.888 23.2201 282.061 22.7007C282.234 22.1814 282.486 21.7286 282.819 21.3422C283.153 20.9559 283.568 20.6487 284.065 20.427C284.561 20.2022 285.13 20.0914 285.774 20.0914C286.212 20.0914 286.627 20.1484 287.02 20.2624C287.412 20.3764 287.758 20.5442 288.066 20.7627C288.37 20.9812 288.624 21.2567 288.83 21.5861C289.033 21.9154 289.167 22.2986 289.229 22.7292H288.115C287.99 22.1529 287.713 21.7222 287.288 21.4309L287.281 21.4372Z"/><path fill="#fff" d="M291.972 20.2884V23.7813H296.388V20.2884H297.503V28.411H296.388V24.6901H291.972V28.411H290.854V20.2884H291.972Z"/><path fill="#fff" d="M26.3792 2.03137H12.4743V5.79658H26.3792V2.03137Z"/><path fill="#fff" d="M10.3865 5.76538H6.5V24.8954H10.3865V5.76538Z"/><path fill="#fff" d="M26.3807 2H10.3871V5.76521H26.3807V2Z"/><path fill="#fff" d="M30.266 5.76538H26.3795V24.9619H30.266V5.76538Z"/><path fill="#fff" d="M30.2671 24.8956H10.3871V28.6608H30.2671V24.8956Z"/><path fill="#fff" d="M18.8994 20.3764L21.6483 17.7259L31.621 27.3495L28.8721 30L18.8994 20.3764Z"/><path fill="#fff" d="M9.0119 7.09539L11.7576 4.44485L17.8471 10.3064L15.1014 12.9601L9.0119 7.09539Z"/><path fill="#fff" d="M136.921 8.15603V11.1739H137.003C138.588 8.8432 140.87 7.67786 143.851 7.67786C145.161 7.67786 146.351 7.94386 147.417 8.4727C148.482 9.00154 149.234 9.90405 149.672 11.1739C150.382 10.0624 151.32 9.20104 152.48 8.59303C153.64 7.98503 154.918 7.68102 156.314 7.68102C157.38 7.68102 158.344 7.79502 159.204 8.01986C160.063 8.2447 160.802 8.5962 161.417 9.07121C162.031 9.54621 162.508 10.1637 162.852 10.9174C163.191 11.6711 163.365 12.5799 163.365 13.6376V28.6921H159.88V15.2273C159.88 14.5908 159.825 13.9954 159.717 13.4413C159.609 12.8839 159.403 12.4026 159.102 11.9909C158.802 11.5824 158.387 11.2562 157.85 11.0187C157.314 10.7812 156.628 10.6609 155.781 10.6609C154.059 10.6609 152.706 11.1359 151.722 12.0891C150.738 13.0423 150.244 14.3121 150.244 15.9018V28.6921H146.76V15.2273C146.76 14.5654 146.698 13.9574 146.577 13.4001C146.456 12.8428 146.24 12.3614 145.943 11.9497C145.642 11.5381 145.24 11.2214 144.733 10.9966C144.227 10.7717 143.579 10.6577 142.785 10.6577C141.775 10.6577 140.906 10.8572 140.183 11.2531C139.458 11.6489 138.873 12.1271 138.421 12.6844C137.97 13.2418 137.644 13.8149 137.438 14.4134C137.232 15.0119 137.13 15.5059 137.13 15.9018V28.6921H133.646V8.15603H136.924H136.921Z"/></g><defs><clipPath id="clip0_3881_16066"><rect width="291" height="28" fill="#fff" transform="translate(6.5 2)"/></clipPath></defs></svg>