<svg width="24" height="24" viewBox="0 0 24 24" fill="none" xmlns="http://www.w3.org/2000/svg">
<path fill-rule="evenodd" clip-rule="evenodd" d="M6 1.25C5.27065 1.25 4.57118 1.53973 4.05546 2.05546C3.53973 2.57118 3.25 3.27065 3.25 4V20C3.25 20.7293 3.53973 21.4288 4.05546 21.9445C4.57118 22.4603 5.27065 22.75 6 22.75H18C18.7293 22.75 19.4288 22.4603 19.9445 21.9445C20.4603 21.4288 20.75 20.7293 20.75 20V10.2432C20.75 9.82895 20.4142 9.49316 20 9.49316C19.5858 9.49316 19.25 9.82895 19.25 10.2432V20C19.25 20.3315 19.1183 20.6495 18.8839 20.8839C18.6495 21.1183 18.3315 21.25 18 21.25H6C5.66848 21.25 5.35054 21.1183 5.11612 20.8839C4.8817 20.6495 4.75 20.3315 4.75 20V4C4.75 3.66848 4.8817 3.35054 5.11612 3.11612C5.35054 2.8817 5.66848 2.75 6 2.75H12.2312C12.6454 2.75 12.9812 2.41421 12.9812 2C12.9812 1.58579 12.6454 1.25 12.2312 1.25H6ZM8 12.25C7.58579 12.25 7.25 12.5858 7.25 13C7.25 13.4142 7.58579 13.75 8 13.75H16C16.4142 13.75 16.75 13.4142 16.75 13C16.75 12.5858 16.4142 12.25 16 12.25H8ZM7.25 17C7.25 16.5858 7.58579 16.25 8 16.25H16C16.4142 16.25 16.75 16.5858 16.75 17C16.75 17.4142 16.4142 17.75 16 17.75H8C7.58579 17.75 7.25 17.4142 7.25 17ZM8 8.25C7.58579 8.25 7.25 8.58579 7.25 9C7.25 9.41421 7.58579 9.75 8 9.75H9H10C10.4142 9.75 10.75 9.41421 10.75 9C10.75 8.58579 10.4142 8.25 10 8.25H9H8Z" fill="white"/>
<path d="M22.7297 8.73062C22.5954 8.86492 22.3776 8.86492 22.2433 8.73062L19.5739 6.06115C19.3524 6.25311 19.0941 6.40262 18.7991 6.50967C18.5041 6.61673 18.1901 6.67025 17.8573 6.67025C17.0587 6.67025 16.3828 6.39339 15.8297 5.83965C15.2766 5.28592 15 4.61774 15 3.83513C15 3.05251 15.2769 2.38434 15.8306 1.8306C16.3843 1.27687 17.0544 1 17.8407 1C18.627 1 19.2951 1.27687 19.8452 1.8306C20.3952 2.38434 20.6703 3.05307 20.6703 3.83679C20.6703 4.15316 20.6186 4.459 20.5152 4.75433C20.4118 5.04965 20.2568 5.32652 20.0501 5.58493L22.7288 8.24333C22.8639 8.37748 22.8644 8.59595 22.7297 8.73062ZM17.8462 6.00577C18.4461 6.00577 18.956 5.79351 19.3759 5.36898C19.7958 4.94444 20.0058 4.43316 20.0058 3.83513C20.0058 3.23709 19.7958 2.72581 19.3759 2.30128C18.956 1.87675 18.4461 1.66448 17.8462 1.66448C17.2402 1.66448 16.725 1.87675 16.3008 2.30128C15.8766 2.72581 15.6645 3.23709 15.6645 3.83513C15.6645 4.43316 15.8766 4.94444 16.3008 5.36898C16.725 5.79351 17.2402 6.00577 17.8462 6.00577Z" stroke="white" stroke-width="0.921335"/>
</svg>
