<svg xmlns="http://www.w3.org/2000/svg" width="24" height="24" fill="none" viewBox="0 0 24 24"><path fill="#0CC72C" fill-rule="evenodd" d="M20.7398 13.6594C21.0523 13.1387 21.3709 12.6078 21.3709 11.9992C21.3709 11.3887 21.0578 10.864 20.7457 10.3407C20.5465 10.0069 20.3477 9.67366 20.2309 9.31919C20.1115 8.95708 20.0729 8.55695 20.0343 8.1579C19.9761 7.55412 19.918 6.95279 19.5809 6.48919C19.239 6.01914 18.6624 5.76895 18.0944 5.52252C17.7319 5.36527 17.373 5.20954 17.0809 4.99919C16.7854 4.78645 16.524 4.48833 16.2608 4.18802C15.8558 3.72605 15.4463 3.25888 14.9009 3.08919C14.3619 2.92152 13.7763 3.05149 13.1849 3.18275C12.7888 3.27068 12.39 3.35919 12.0009 3.35919C11.6145 3.35919 11.2186 3.26876 10.8252 3.17889C10.2309 3.04314 9.64237 2.90869 9.10086 3.08919C8.55813 3.2701 8.15722 3.72376 7.75559 4.17822C7.49121 4.47738 7.22652 4.77689 6.92086 4.99919C6.6143 5.22215 6.24275 5.38487 5.87184 5.5473C5.31113 5.79287 4.75189 6.03779 4.42086 6.48919C4.08444 6.94794 4.02115 7.57505 3.95864 8.19431C3.91896 8.58747 3.87959 8.97746 3.77086 9.31919C3.66149 9.66293 3.46363 9.99445 3.26309 10.3305C2.95023 10.8547 2.63086 11.3898 2.63086 11.9992C2.63086 12.6097 2.94391 13.1344 3.25605 13.6577C3.45521 13.9915 3.654 14.3247 3.77086 14.6792C3.88941 15.0388 3.9252 15.4359 3.96091 15.8322C4.01557 16.4388 4.07007 17.0435 4.42086 17.5092C4.77091 17.9739 5.33588 18.2201 5.89372 18.4632C6.26015 18.6228 6.62351 18.7811 6.92086 18.9992C7.21407 19.2142 7.47366 19.5118 7.73487 19.8112C8.14182 20.2777 8.55271 20.7487 9.10086 20.9192C9.63628 21.0858 10.2071 20.9586 10.7922 20.8282C11.1907 20.7394 11.5958 20.6492 12.0009 20.6492C12.4016 20.6492 12.8023 20.7391 13.1965 20.8276C13.7862 20.9599 14.3615 21.089 14.9009 20.9092C15.4391 20.7298 15.8378 20.275 16.2361 19.8207C16.5038 19.5154 16.7713 19.2103 17.0809 18.9892C17.3829 18.7734 17.7481 18.6131 18.1135 18.4526C18.6797 18.204 19.2466 17.955 19.5809 17.4992C19.9173 17.0404 19.9806 16.4133 20.0431 15.7941C20.0828 15.4009 20.1221 15.0109 20.2309 14.6692C20.3404 14.3248 20.5388 13.9942 20.7398 13.6594ZM16.5303 10.5303C16.8232 10.2374 16.8232 9.76256 16.5303 9.46967C16.2374 9.17678 15.7626 9.17678 15.4697 9.46967L11 13.9393L8.53033 11.4697C8.23744 11.1768 7.76256 11.1768 7.46967 11.4697C7.17678 11.7626 7.17678 12.2374 7.46967 12.5303L10.4697 15.5303C10.7626 15.8232 11.2374 15.8232 11.5303 15.5303L16.5303 10.5303Z" clip-rule="evenodd"/></svg>