<svg xmlns="http://www.w3.org/2000/svg" width="28" height="28" fill="none" viewBox="0 0 28 28"><g clip-path="url(#clip0_784_43798)"><path fill="#FFF8E8" d="M14 28C21.732 28 28 21.732 28 14C28 6.26801 21.732 0 14 0C6.26801 0 0 6.26801 0 14C0 21.732 6.26801 28 14 28Z"/><path fill="#F7931A" d="M20.0907 12.2853C20.3638 10.4465 18.9739 9.45798 17.0733 8.79854L17.6898 6.30761L16.1846 5.92974L15.5844 8.35503C15.1887 8.2557 14.7822 8.16199 14.3784 8.06914L14.9829 5.62787L13.4785 5.25L12.8615 7.74007C12.534 7.66492 12.2124 7.59065 11.9003 7.51248L11.902 7.50471L9.82616 6.9826L9.42573 8.60205C9.42573 8.60205 10.5426 8.85986 10.519 8.87584C11.1286 9.02915 11.2388 9.43552 11.2204 9.75769L10.5181 12.5954C10.5601 12.6062 10.6146 12.6217 10.6746 12.6459C10.6244 12.6334 10.5709 12.6196 10.5155 12.6062L9.53119 16.5814C9.4566 16.768 9.26753 17.0478 8.84137 16.9416C8.85638 16.9636 7.74727 16.6665 7.74727 16.6665L7 18.4021L8.95885 18.894C9.32326 18.986 9.68039 19.0823 10.0319 19.173L9.40901 21.6924L10.9125 22.0703L11.5295 19.5776C11.9402 19.6899 12.3389 19.7935 12.7291 19.8911L12.1143 22.3721L13.6195 22.75L14.2425 20.2353C16.8092 20.7246 18.7394 20.5272 19.5518 18.1888C20.2065 16.3059 19.5192 15.2198 18.1687 14.5115C19.1522 14.2831 19.8931 13.6314 20.0907 12.2853ZM16.5793 17.3604C16.1446 19.0758 13.2035 18.1485 12.25 17.916L13.0224 14.875C13.9759 15.1087 17.0336 15.5714 16.5793 17.3604ZM17.4468 12.0665C16.9757 13.8103 14.0682 12.9244 13.125 12.7072L13.9568 9.625C14.9 9.8422 17.9374 10.2476 17.4468 12.0665Z"/></g><defs><clipPath id="clip0_784_43798"><rect width="28" height="28" fill="#fff"/></clipPath></defs></svg>