<svg xmlns="http://www.w3.org/2000/svg" width="24" height="24" fill="none" viewBox="0 0 24 24"><path fill="#FF00AF" d="M12.6686 3V10.5815L12.5494 10.4623L12.0963 10.0093L11.6432 9.55629C11.5757 9.48874 11.52 9.36159 11.516 9.2702L11.4604 8.17748L11.3889 6.74702C11.3849 6.65563 11.4048 6.50464 11.4326 6.41722L12.5096 3.16291L12.5613 3C11.7942 3.00795 11.055 3.11126 10.3476 3.30199L10.2959 3.46093L10.0614 4.16026L9.82693 4.8596C9.79911 4.94702 9.70769 4.98675 9.62423 4.94305L8.96448 4.61325L8.15371 4.20795C7.50588 4.58543 6.90575 5.03841 6.37318 5.56291L6.52421 5.63841L7.87948 6.31788L9.23474 6.99735C9.3182 7.03709 9.38974 7.14834 9.39372 7.23974L9.42949 7.94305L9.46526 8.64636C9.46923 8.73775 9.39769 8.80927 9.30628 8.8053L8.55512 8.76556L7.90332 8.73378C7.81191 8.7298 7.70063 8.65828 7.66089 8.57483L6.30164 5.8649L6.22613 5.71391C5.70549 6.24636 5.24843 6.84636 4.87484 7.49404L4.95035 7.64503L5.28023 8.30066L5.6101 8.95629C5.64985 9.03973 5.6101 9.13113 5.52664 9.15894L4.82715 9.3894L3.96868 9.6755C3.78188 10.3828 3.67457 11.1258 3.66663 11.8887L3.8256 11.8371L7.07665 10.7563C7.16409 10.7285 7.31114 10.7086 7.40652 10.7126L9.09166 10.8L9.93424 10.8437C10.0256 10.8477 10.1568 10.9073 10.2204 10.9709L11.1266 11.8808C11.1941 11.9483 11.1941 12.0556 11.1266 12.1192L10.6735 12.5722L10.2204 13.0252C10.1528 13.0927 10.0256 13.1483 9.93424 13.1523L8.67038 13.2159L7.40652 13.2795C7.31511 13.2834 7.16409 13.2636 7.07665 13.2358L5.41933 12.6834L3.8256 12.1629L3.66663 12.1113C3.67457 12.8742 3.77791 13.6172 3.96868 14.3245L4.12765 14.3762L4.82715 14.6066L5.52664 14.8371C5.61408 14.8649 5.65382 14.9563 5.6101 15.0397L4.87484 16.506C5.25241 17.1536 5.70549 17.7536 6.22613 18.2861L6.30164 18.1351L7.06075 16.6212L7.66089 15.4252C7.70063 15.3417 7.81191 15.2702 7.90332 15.2662L8.55512 15.2344L9.30628 15.1947C9.39769 15.1907 9.46923 15.2623 9.46526 15.3536L9.44141 15.8225L9.39372 16.7563C9.38974 16.8477 9.3182 16.9589 9.23474 16.9987L7.87948 17.6781L6.37318 18.4331C6.90575 18.9536 7.50588 19.4106 8.15371 19.7881L8.30474 19.7126L9.62026 19.053C9.70372 19.0132 9.79513 19.053 9.82295 19.1364L10.0574 19.8358L10.2919 20.5351L10.3436 20.694C11.051 20.8808 11.7942 20.9881 12.5573 20.996L12.5057 20.8371L11.7227 18.4808L11.4246 17.5828C11.3968 17.4954 11.3769 17.3483 11.3809 17.253L11.4366 16.1483L11.5081 14.7298C11.5121 14.6384 11.5717 14.5073 11.6353 14.4437L12.5414 13.5377L12.6607 13.4185V21C17.6366 21 21.6666 16.9709 21.6666 12C21.6666 7.02914 17.6406 3 12.6686 3ZM15.1447 18.5523C14.9897 18.6119 14.8307 18.6636 14.8307 18.6636C14.7432 18.6914 14.6717 18.6397 14.6717 18.5444V5.4596C14.6717 5.36821 14.7432 5.31258 14.8307 5.3404C14.8307 5.3404 15.0254 5.40397 15.1963 5.46755C17.8154 6.48477 19.6755 9.02781 19.6755 11.996C19.6755 14.9642 17.7916 17.543 15.1486 18.5444L15.1447 18.5523Z"/></svg>