<svg width="24" height="25" viewBox="0 0 24 25" fill="none" xmlns="http://www.w3.org/2000/svg">
<g clip-path="url(#clip0_5601_70147)">
<path d="M12 24.2566C18.6274 24.2566 24 18.884 24 12.2566C24 5.62917 18.6274 0.256592 12 0.256592C5.37258 0.256592 0 5.62917 0 12.2566C0 18.884 5.37258 24.2566 12 24.2566Z" fill="#FF00AF"/>
<path fill-rule="evenodd" clip-rule="evenodd" d="M13.6625 17.8482V6.66649C16.0696 7.38566 17.8292 9.61982 17.8292 12.2573C17.8292 14.8948 16.0696 17.1294 13.6625 17.8482ZM11.9958 4.75732V11.0786L11.0438 10.1265L10.9221 7.75024L11.915 4.76149C11.2783 4.76816 10.6633 4.85899 10.0746 5.01524L9.59417 6.45982L8.2325 5.77691C7.69375 6.09066 7.19542 6.46607 6.7525 6.89982L9.27458 8.16357L9.34833 9.60982L7.9025 9.53566L6.63833 7.01399C6.205 7.45691 5.82917 7.95482 5.51542 8.49399L6.19875 9.85607L4.75333 10.3361C4.5975 10.9248 4.50667 11.5398 4.5 12.1765L7.48917 11.1836L9.86542 11.3048L10.8175 12.2573L9.86542 13.2098L7.48917 13.3311L4.5 12.3382C4.50667 12.9748 4.5975 13.5898 4.75333 14.1786L6.19875 14.6586L5.51542 16.0207C5.82917 16.5598 6.205 17.0577 6.63833 17.5007L7.9025 14.979L9.34833 14.9048L9.27458 16.3507L6.7525 17.6148C7.19542 18.0482 7.69375 18.4236 8.2325 18.7377L9.59417 18.0548L10.0746 19.4994C10.6633 19.6552 11.2783 19.7465 11.915 19.7532L10.9221 16.7644L11.0438 14.3882L11.9958 13.4361V19.7573C16.1379 19.7573 19.4958 16.3994 19.4958 12.2573C19.4958 8.11524 16.1379 4.75732 11.9958 4.75732Z" fill="white"/>
</g>
<defs>
<clipPath id="clip0_5601_70147">
<rect width="24" height="24" fill="white" transform="translate(0 0.254395)"/>
</clipPath>
</defs>
</svg>
