<svg xmlns="http://www.w3.org/2000/svg" width="28" height="28" fill="none" viewBox="0 0 28 28"><g clip-path="url(#clip0_784_43841)"><path fill="#C8DEF4" d="M14 -0.0078125C21.7321 -0.0078125 28 6.26005 28 13.9922C28 21.7237 21.7321 27.9922 14 27.9922C6.26786 27.9922 0 21.7237 0 13.9922C0 6.26005 6.26786 -0.0078125 14 -0.0078125Z" clipRule="evenodd" fillRule="evenodd"/><path fill="#2775CA" d="M11.3754 23.7259C11.3754 24.0553 11.1175 24.2424 10.799 24.143C6.56609 22.7926 3.49707 18.8235 3.49707 14.1401C3.49707 9.45698 6.56609 5.48766 10.799 4.13729C11.1175 4.0385 11.3754 4.22496 11.3754 4.55427V5.36723C11.3754 5.58646 11.2055 5.8445 10.9966 5.91594C7.64759 7.14571 5.24851 10.363 5.24851 14.1345C5.24851 17.9061 7.64759 21.124 10.9966 22.3532C11.2055 22.4302 11.3754 22.6825 11.3754 22.9025V23.7259ZM14.8729 20.7008C14.8729 20.9426 14.6754 21.1403 14.4339 21.1403H13.5608C13.3193 21.1403 13.1217 20.9426 13.1217 20.7008V19.3175C11.211 19.0596 10.2779 17.9887 10.0253 16.534C9.98124 16.2867 10.1788 16.0618 10.4315 16.0618H11.4307C11.6393 16.0618 11.8151 16.2102 11.859 16.4184C12.0458 17.2859 12.5453 17.9502 14.0769 17.9502C15.2079 17.9502 16.0096 17.3188 16.0096 16.375C16.0096 15.4302 15.5374 15.0736 13.8793 14.7988C11.4307 14.4695 10.2724 13.7282 10.2724 11.8067C10.2724 10.3244 11.3925 9.17163 13.1273 8.92441V7.56832C13.1273 7.32666 13.325 7.12891 13.5664 7.12891H14.4394C14.6809 7.12891 14.8785 7.32666 14.8785 7.56832V8.96291C16.2895 9.21586 17.1843 10.0169 17.4755 11.3454C17.5303 11.5984 17.3326 11.834 17.0748 11.834H16.1522C15.9547 11.834 15.7899 11.7022 15.7296 11.5101C15.4826 10.665 14.8785 10.3028 13.8298 10.3028C12.6714 10.3028 12.0729 10.8626 12.0729 11.6476C12.0729 12.4766 12.4136 12.8936 14.1925 13.1521C16.5969 13.4814 17.8379 14.1676 17.8379 16.2159C17.8379 17.7694 16.6849 19.0267 14.8785 19.3175V20.7008H14.8729ZM16.6243 23.7264C16.6243 24.0556 16.8825 24.2428 17.2008 24.1434C21.4337 22.7874 24.4975 18.8236 24.5027 14.1517C24.5027 9.46848 21.4337 5.49931 17.2008 4.14816C16.8825 4.04443 16.6243 4.23645 16.6243 4.56577V5.37808C16.6243 5.59811 16.7946 5.85043 17.0032 5.92743C20.3522 7.1572 22.7512 10.3745 22.7512 14.1461C22.7512 17.9177 20.3522 21.1349 17.0032 22.3647C16.7726 22.4474 16.6243 22.6724 16.6243 22.9141V23.7264Z" clipRule="evenodd" fillRule="evenodd"/></g><defs><clipPath id="clip0_784_43841"><rect width="28" height="28" fill="#fff"/></clipPath></defs></svg>