<svg xmlns="http://www.w3.org/2000/svg" width="28" height="28" fill="none" viewBox="0 0 28 28"><g clip-path="url(#clip0_784_43819)"><path fill="#DFFFF5" d="M14 28C21.732 28 28 21.732 28 14C28 6.26801 21.732 0 14 0C6.26801 0 0 6.26801 0 14C0 21.732 6.26801 28 14 28Z"/><path fill="#26A17B" d="M15.6819 15.2103V15.2085C15.5857 15.2155 15.0896 15.2453 13.9827 15.2453C13.0989 15.2453 12.4768 15.219 12.2581 15.2085V15.2112C8.85607 15.0615 6.31682 14.4692 6.31682 13.7604C6.31682 13.0525 8.85607 12.4602 12.2581 12.3079V14.6214C12.4803 14.6372 13.1173 14.6748 13.9976 14.6748C15.0537 14.6748 15.5831 14.631 15.6819 14.6223V12.3097C19.0769 12.461 21.6101 13.0534 21.6101 13.7604C21.6101 14.4692 19.0769 15.0598 15.6819 15.2103ZM15.6819 12.069V9.9988H20.4192V6.8418H7.52082V9.9988H12.2581V12.0682C8.40807 12.2449 5.5127 13.0079 5.5127 13.9214C5.5127 14.8349 8.40807 15.597 12.2581 15.7747V22.4089H15.6819V15.7729C19.5258 15.5962 22.4142 14.834 22.4142 13.9214C22.4142 13.0088 19.5258 12.2467 15.6819 12.069Z"/></g><defs><clipPath id="clip0_784_43819"><rect width="28" height="28" fill="#fff"/></clipPath></defs></svg>