<svg xmlns="http://www.w3.org/2000/svg" width="24" height="24" fill="none" viewBox="0 0 24 24"><g clip-path="url(#clip0_804_3557)"><path fill="#627EEA" d="M12 24C18.6274 24 24 18.6274 24 12C24 5.37258 18.6274 0 12 0C5.37258 0 0 5.37258 0 12C0 18.6274 5.37258 24 12 24Z"/><path fill="#fff" fill-opacity=".602" d="M12.3735 3V9.6525L17.9963 12.165L12.3735 3Z"/><path fill="#fff" d="M12.3735 3L6.75 12.165L12.3735 9.6525V3Z"/><path fill="#fff" fill-opacity=".602" d="M12.3735 16.476V20.9962L18 13.212L12.3735 16.476Z"/><path fill="#fff" d="M12.3735 20.9962V16.4752L6.75 13.212L12.3735 20.9962Z"/><path fill="#fff" fill-opacity=".2" d="M12.3735 15.4297L17.9963 12.165L12.3735 9.65399V15.4297Z"/><path fill="#fff" fill-opacity=".602" d="M6.75 12.165L12.3735 15.4297V9.65399L6.75 12.165Z"/></g><defs><clipPath id="clip0_804_3557"><rect width="24" height="24" fill="#fff"/></clipPath></defs></svg>