<svg width="36" height="36" viewBox="0 0 36 36" fill="none" xmlns="http://www.w3.org/2000/svg">
<path fill-rule="evenodd" clip-rule="evenodd" d="M0 18C0 8.05891 8.05891 0 18 0C27.9411 0 36 8.05891 36 18C36 27.9411 27.9411 36 18 36C8.05891 36 0 27.9411 0 18Z" fill="url(#paint0_linear_4923_61096)"/>
<path d="M11.6123 18.8254L10.9601 19.7057C10.8058 20.011 11.0279 20.372 11.37 20.372H13.5043C14.1792 23.162 16.1226 25.0646 18.7266 25.0253C20.5752 25.0253 21.9688 24.1061 22.8993 22.2759C23.0178 22.0429 22.914 21.757 22.6752 21.6504L21.6572 21.1956C21.4331 21.0955 21.1689 21.1893 21.0603 21.4094C20.5798 22.3845 19.7814 23.006 18.7266 23.006C17.7716 23.006 17.0055 22.5383 16.4186 21.5934C16.1892 21.2276 16.0066 20.8195 15.8677 20.3723H18.6013C18.7745 20.3723 18.933 20.2747 19.0112 20.1202L19.6634 19.2398C19.8177 18.9343 19.5956 18.5735 19.2535 18.5735H15.5602C15.5496 18.3842 15.543 18.1911 15.543 17.9919C15.541 17.7945 15.5466 17.6014 15.5569 17.4111H18.6013C18.7745 17.4111 18.933 17.3135 19.0112 17.159L19.6634 16.2786C19.8177 15.9733 19.5956 15.6123 19.2535 15.6123H15.8645C16.3601 13.9961 17.395 12.9373 18.7266 12.9582C19.741 12.9582 20.5288 13.5136 21.034 14.4234C21.1472 14.6274 21.4021 14.7055 21.6154 14.6112L22.6387 14.1595C22.8835 14.0513 22.9876 13.7554 22.858 13.5212C21.9136 11.8154 20.5364 10.9586 18.7266 10.9586C17.075 10.9586 15.752 11.615 14.7474 12.9184C14.1603 13.686 13.7513 14.5865 13.5088 15.6123H12.0224C11.8492 15.6123 11.6907 15.7099 11.6125 15.8644L10.9603 16.7448C10.8061 17.0503 11.0282 17.4111 11.3703 17.4111H13.2633C13.2542 17.6022 13.2454 17.7938 13.2454 17.9919C13.2429 18.1883 13.2477 18.3819 13.256 18.5735H12.0227C11.8495 18.5735 11.6904 18.6708 11.6123 18.8254Z" fill="white"/>
<path d="M6.15555 17.2417C6.52614 11.3244 11.2898 6.54579 17.2059 6.1578C20.3158 5.95386 23.1913 6.95848 25.4145 8.7436C25.6303 8.9168 25.9394 8.90898 26.1459 8.7247L27.0179 7.94671C27.2766 7.71604 27.2713 7.30713 27.004 7.08629C24.4107 4.94293 21.0436 3.70386 17.3907 3.85789C10.1458 4.16344 4.25042 9.991 3.86572 17.2323C3.69933 20.3644 4.55824 23.2921 6.13563 25.7107C6.32446 26.0004 6.72908 26.0506 6.98723 25.8204L7.85824 25.0432C8.0642 24.8594 8.10857 24.5539 7.96109 24.3207C6.67841 22.2913 5.99219 19.8494 6.15555 17.2417Z" fill="white"/>
<path d="M29.8644 10.289C29.6755 9.99957 29.2709 9.94915 29.0128 10.1793L28.1418 10.9565C27.9358 11.1403 27.8914 11.4459 28.0389 11.6791C29.3216 13.7085 30.0078 16.1506 29.8442 18.7583C29.4734 24.6754 24.7097 29.4537 18.7936 29.8417C15.6837 30.0456 12.8085 29.041 10.585 27.2559C10.3692 27.0827 10.0601 27.0905 9.85361 27.2748L8.98185 28.0528C8.72319 28.2834 8.72849 28.6923 8.99572 28.9132C11.5893 31.0568 14.9564 32.2956 18.6096 32.1416C25.8545 31.8358 31.7498 26.008 32.134 18.7666C32.3002 15.6348 31.4415 12.7071 29.8644 10.289Z" fill="white"/>
<defs>
<linearGradient id="paint0_linear_4923_61096" x1="34.6774" y1="34.6774" x2="0" y2="0" gradientUnits="userSpaceOnUse">
<stop stop-color="#8656EF"/>
<stop offset="0.97" stop-color="#1AA3FF"/>
</linearGradient>
</defs>
</svg>
