<svg xmlns="http://www.w3.org/2000/svg" width="28" height="28" fill="none" viewBox="0 0 28 28"><g clip-path="url(#clip0_784_43831)"><path fill="#2775CA" d="M14 28C21.7584 28 28 21.7584 28 14C28 6.24162 21.7584 0 14 0C6.24162 0 0 6.24162 0 14C0 21.7584 6.24162 28 14 28Z"/><path fill="#fff" d="M17.8498 16.2167C17.8498 14.1751 16.6248 13.4751 14.1748 13.1835C12.4248 12.9501 12.0748 12.4835 12.0748 11.6667C12.0748 10.8499 12.6582 10.3251 13.8248 10.3251C14.8748 10.3251 15.4582 10.6751 15.7498 11.5501C15.8082 11.7251 15.9832 11.8417 16.1582 11.8417H17.0914C17.3248 11.8417 17.4998 11.6667 17.4998 11.4335V11.3751C17.2664 10.0917 16.2164 9.10008 14.8748 8.98346V7.58346C14.8748 7.35008 14.6998 7.17508 14.4082 7.1167H13.5332C13.2998 7.1167 13.1248 7.2917 13.0664 7.58346V8.92508C11.3164 9.15846 10.2082 10.3251 10.2082 11.7835C10.2082 13.7085 11.3748 14.4667 13.8248 14.7585C15.4582 15.0501 15.9832 15.4001 15.9832 16.3335C15.9832 17.2668 15.1664 17.9085 14.0582 17.9085C12.5414 17.9085 12.0164 17.2667 11.8414 16.3917C11.7832 16.1585 11.6082 16.0417 11.4332 16.0417H10.4414C10.2082 16.0417 10.0332 16.2167 10.0332 16.4501V16.5085C10.2664 17.9667 11.1998 19.0167 13.1248 19.3085V20.7085C13.1248 20.9417 13.2998 21.1167 13.5914 21.1751H14.4664C14.6998 21.1751 14.8748 21.0001 14.9332 20.7085V19.3085C16.6832 19.0167 17.8498 17.7917 17.8498 16.2167Z"/><path fill="#fff" d="M11.0252 22.3417C6.47516 20.7085 4.14178 15.6335 5.83354 11.1417C6.70854 8.69174 8.63354 6.82512 11.0252 5.95012C11.2585 5.8335 11.3752 5.6585 11.3752 5.36674V4.55012C11.3752 4.31674 11.2585 4.14174 11.0252 4.0835C10.9668 4.0835 10.8502 4.0835 10.7918 4.14174C5.25016 5.89174 2.21678 11.7835 3.96678 17.3251C5.01678 20.5917 7.52516 23.1001 10.7918 24.1501C11.0252 24.2667 11.2585 24.1501 11.3168 23.9167C11.3752 23.8585 11.3752 23.8001 11.3752 23.6835V22.8667C11.3752 22.6917 11.2002 22.4585 11.0252 22.3417ZM17.2085 4.14174C16.9752 4.02512 16.7418 4.14174 16.6835 4.37512C16.6252 4.4335 16.6252 4.49174 16.6252 4.6085V5.42512C16.6252 5.6585 16.8002 5.89174 16.9752 6.0085C21.5252 7.64174 23.8585 12.7167 22.1668 17.2085C21.2918 19.6585 19.3668 21.5251 16.9752 22.4001C16.7418 22.5167 16.6252 22.6917 16.6252 22.9835V23.8001C16.6252 24.0335 16.7418 24.2085 16.9752 24.2667C17.0335 24.2667 17.1502 24.2667 17.2085 24.2085C22.7502 22.4585 25.7835 16.5667 24.0335 11.0251C22.9835 7.70012 20.4168 5.19174 17.2085 4.14174Z"/></g><defs><clipPath id="clip0_784_43831"><rect width="28" height="28" fill="#fff"/></clipPath></defs></svg>