<svg xmlns="http://www.w3.org/2000/svg" width="28" height="28" fill="none" viewBox="0 0 28 28"><g clip-path="url(#clip0_784_43810)"><path fill="#53AE94" d="M14 0C21.7316 0 28 6.26836 28 14C28 21.7316 21.7314 28 14 28C6.26864 28 0 21.7333 0 14C0 6.26668 6.26752 0 14 0Z"/><path fill="#fff" d="M15.7279 12.1348V10.0521H20.4904V6.87891H7.52194V10.0521H12.285V12.1331C8.41402 12.3109 5.50342 13.0775 5.50342 13.9959C5.50342 14.9143 8.41542 15.681 12.285 15.8599V22.5309H15.729V15.8593C19.593 15.681 22.4977 14.9149 22.4977 13.9973C22.4977 13.0798 19.593 12.3137 15.729 12.1353M15.729 15.2943V15.2926C15.6319 15.2988 15.1326 15.3287 14.021 15.3287C13.1323 15.3287 12.5071 15.3035 12.2867 15.2921V15.2949C8.86678 15.1434 6.31402 14.5478 6.31402 13.8352C6.31402 13.1226 8.86706 12.5279 12.2867 12.3761V14.7015C12.5107 14.7169 13.1513 14.7547 14.0356 14.7547C15.0976 14.7547 15.6316 14.7105 15.7296 14.7015V12.3761C19.1428 12.5282 21.6897 13.1243 21.6897 13.8344C21.6897 14.5445 19.1417 15.1409 15.7296 15.2929"/></g><defs><clipPath id="clip0_784_43810"><rect width="28" height="28" fill="#fff"/></clipPath></defs></svg>