<svg xmlns="http://www.w3.org/2000/svg" width="24" height="24" fill="none" viewBox="0 0 24 24"><g clip-path="url(#clip0_775_6022)"><path fill="#5A5564" d="M19.5695 5.03679L18.9105 5.69577C20.4829 7.41533 21.3549 9.6611 21.3549 11.9912C21.3549 14.3213 20.4829 16.5671 18.9105 18.2867L19.5695 18.9456C21.3182 17.0488 22.289 14.5634 22.289 11.9835C22.289 9.40363 21.3182 6.91822 19.5695 5.02142V5.03679Z"/><path fill="#5A5564" d="M5.71116 5.09391C7.43072 3.52148 9.67649 2.64948 12.0066 2.64948C14.3367 2.64948 16.5825 3.52148 18.302 5.09391L18.961 4.43493C17.0642 2.68622 14.5788 1.71535 11.9989 1.71535C9.41902 1.71535 6.93361 2.68622 5.0368 4.43493L5.71116 5.09391Z"/><path fill="#5A5564" d="M5.09392 18.2932C3.52335 16.5741 2.6525 14.3297 2.6525 12.0011C2.6525 9.67252 3.52335 7.42813 5.09392 5.70895L4.43494 5.04997C2.68623 6.94677 1.71536 9.43219 1.71536 12.0121C1.71536 14.592 2.68623 17.0774 4.43494 18.9742L5.09392 18.2932Z"/><path fill="#5A5564" d="M18.2933 18.9017C16.5737 20.4741 14.3279 21.3461 11.9978 21.3461C9.6677 21.3461 7.42194 20.4741 5.70237 18.9017L5.0434 19.5607C6.9402 21.3094 9.42561 22.2803 12.0055 22.2803C14.5854 22.2803 17.0708 21.3094 18.9676 19.5607L18.2933 18.9017Z"/><path fill="#F09242" d="M16.1603 9.80121C16.0285 8.42614 14.8424 7.96486 13.3421 7.82427V5.93081H12.1823V7.78913C11.877 7.78913 11.5651 7.78913 11.2553 7.78913V5.93081H10.1043V7.83745H7.75177V9.07853C7.75177 9.07853 8.60844 9.06315 8.59526 9.07853C8.74973 9.06154 8.90476 9.10517 9.02768 9.20023C9.15061 9.2953 9.23184 9.43437 9.25424 9.58814V14.8073C9.25094 14.8615 9.2368 14.9145 9.21265 14.9632C9.18851 15.0118 9.15484 15.0552 9.11366 15.0906C9.07325 15.1267 9.02595 15.1543 8.97461 15.1717C8.92328 15.189 8.86896 15.1958 8.81492 15.1917C8.8303 15.2048 7.97143 15.1917 7.97143 15.1917L7.75177 16.5777H10.0824V18.5151H11.2422V16.6063H12.1691V18.5063H13.3311V16.5909C15.2905 16.4723 16.6568 15.989 16.8281 14.1549C16.9665 12.6788 16.2724 12.0198 15.1631 11.754C15.8374 11.4223 16.2548 10.8073 16.1603 9.80121ZM14.5349 13.9264C14.5349 15.3674 12.0659 15.2026 11.2795 15.2026V12.6458C12.0659 12.648 14.5349 12.4217 14.5349 13.9264ZM13.9967 10.324C13.9967 11.642 11.9363 11.4816 11.2817 11.4816V9.15761C11.9363 9.15761 13.9967 8.95113 13.9967 10.324Z"/><path fill="#282138" d="M11.9978 24C9.62459 23.9995 7.30481 23.2954 5.33176 21.9767C3.35871 20.658 1.82098 18.7838 0.913 16.5912C0.00502087 14.3985 -0.232434 11.9859 0.230659 9.65836C0.693751 7.33079 1.8366 5.1928 3.51469 3.5147C5.19279 1.8366 7.33078 0.693759 9.65835 0.230666C11.9859 -0.232426 14.3985 0.0050285 16.5912 0.913008C18.7838 1.82099 20.6579 3.35872 21.9767 5.33177C23.2954 7.30482 23.9995 9.6246 24 11.9978C24.0003 13.574 23.69 15.1349 23.0869 16.5912C22.4839 18.0475 21.5998 19.3707 20.4853 20.4853C19.3707 21.5998 18.0475 22.4839 16.5912 23.087C15.1349 23.69 13.574 24.0003 11.9978 24ZM11.9978 0.935732C9.81134 0.937469 7.67449 1.58736 5.85732 2.80325C4.04015 4.01914 2.62423 5.74646 1.78852 7.76688C0.952809 9.7873 0.734827 12.0101 1.16212 14.1544C1.58942 16.2987 2.64282 18.2681 4.18917 19.8139C5.73552 21.3596 7.70541 22.4122 9.84986 22.8387C11.9943 23.2651 14.217 23.0463 16.2371 22.2098C18.2572 21.3732 19.984 19.9566 21.1991 18.139C22.4143 16.3213 23.0634 14.1842 23.0642 11.9978C23.0648 10.5446 22.7789 9.10548 22.2229 7.76282C21.6669 6.42016 20.8517 5.20027 19.824 4.17289C18.7962 3.14551 17.576 2.3308 16.2331 1.77534C14.8902 1.21989 13.451 0.934577 11.9978 0.935732Z"/></g><defs><clipPath id="clip0_775_6022"><rect width="24" height="24" fill="#fff"/></clipPath></defs></svg>